<?xml version="1.0" standalone="no"?>
<!DOCTYPE svg PUBLIC "-//W3C//DTD SVG 1.1//EN" "http://www.w3.org/Graphics/SVG/1.1/DTD/svg11.dtd" >
<!--
2013-9-30: Created.
-->
<svg>
<metadata>
Created by iconfont
</metadata>
<defs>

<font id="iconfont" horiz-adv-x="1024" >
  <font-face
    font-family="iconfont"
    font-weight="500"
    font-stretch="normal"
    units-per-em="1024"
    ascent="896"
    descent="-128"
  />
    <missing-glyph />
    
    <glyph glyph-name="play" unicode="&#58880;" d="M204.58705-55.16208800000004L204.58705 823.163111 819.41295 384.001023Z"  horiz-adv-x="1024" />

    
    <glyph glyph-name="download" unicode="&#59208;" d="M512 320l256 256-192 0 0 256-128 0 0-256-192 0zM744.73472 424.73472l-71.74144-71.74144 260.07552-96.99328-421.0688-157.02016-421.0688 157.02016 260.07552 96.99328-71.74144 71.74144-279.26528-104.73472 0-256 512-192 512 192 0 256z"  horiz-adv-x="1024" />

    
    <glyph glyph-name="view" unicode="&#59141;" d="M950.857143 786.285714L73.142857 786.285714c-20.214857 0-36.571429-16.356571-36.571429-36.571429l0-658.285714c0-20.214857 16.356571-36.571429 36.571429-36.571429l351.107657 0L402.285714-18.285713999999984l-54.857143 0c-10.106514 0-18.285714-8.1792-18.285714-18.285714s8.1792-18.285714 18.285714-18.285714l329.142857 0c10.106514 0 18.285714 8.1792 18.285714 18.285714s-8.1792 18.285714-18.285714 18.285714l-54.857143 0-21.9648 73.142857L950.857143 54.85714299999995c20.214857 0 36.571429 16.356571 36.571429 36.571429L987.428571 749.714286C987.428571 769.929143 971.072 786.285714 950.857143 786.285714zM512 91.42857100000003c-20.214857 0-36.571429 16.356571-36.571429 36.571429s16.356571 36.571429 36.571429 36.571429 36.571429-16.356571 36.571429-36.571429S532.214857 91.42857100000003 512 91.42857100000003zM109.714286 201.14285700000005L109.714286 713.142857l804.571429 0 0-512L109.714286 201.14285700000005z"  horiz-adv-x="1024" />

    
    <glyph glyph-name="3d-chart" unicode="&#58924;" d="M142.921595 717.327668c-8.093329-3.338025-14.716166-13.279445-14.716166-22.091134l0-495.869624c0-8.810666 6.845918-18.119683 15.214517-20.685111l130.120546-39.889499c8.367575-2.566452 21.823028-1.90028 29.899984 1.477654l37.303604 15.471366 0 0 0-20.998243c0-8.812713 6.846942-18.121729 15.214517-20.687158l130.119523-39.889499c8.367575-2.566452 21.822005-1.90028 29.899984 1.476631l57.636698 24.233937 0 0 0-36.124755c0-8.81169 6.846942-18.119683 15.214517-20.685111l130.116453-39.890522c8.368598-2.564405 21.823028-1.90028 29.901007 1.478677l131.171482 54.864562c8.077979 3.37998 14.687514 13.353123 14.687514 22.165836L894.705773 312.253956c0 8.810666-6.969739 17.659195-15.486716 19.659759l-145.877415 34.282804c-8.516977 2.00261-22.109554 0.908696-30.203906-2.429329l-41.301661-17.087167 0 0L661.836075 478.211708c0 8.81169-6.969739 17.659195-15.487739 19.660782l-145.876392 34.280758c-8.518001 2.00261-22.10853 0.906649-30.204929-2.430352l-20.968567-8.832156 0 0L449.298448 713.168951c0 8.812713-6.968715 17.659195-15.486716 19.660782L287.93227 767.1115139999999c-8.519024 2.000564-22.10853 0.907673-30.204929-2.431376L142.921595 717.327668zM747.824495 36.36241800000005L747.824495 232.15875600000004c0 8.812713 6.580882 18.857487 14.620999 22.323425l99.535971 42.908252c8.04114 3.466961 14.620999-0.907673 14.620999-9.718339l0-195.787128c0-8.809643-6.578836-18.857487-14.619976-22.323425l-99.536994-42.915415c-8.039093-3.466961-14.618952 0.905626-14.618952 9.717316L747.824495 36.363441999999964zM628.73519 315.82836399999997l0.286526 0.11768c8.090259 3.349281 18.781762 7.773034 23.76117 9.832949 4.977361 2.059915 15.669888 6.486738 23.760147 9.833973l30.643927 12.681834c8.090259 3.347235 21.681812 4.453429 30.199813 2.454912l109.469204-25.674753c8.518001-1.998517 8.882298-6.40692 0.808412-9.795087l-91.366917-38.356586c-8.072863-3.390213-21.527292-4.070712-29.896914-1.51347L677.053662 290.486186c-8.371668 2.556219-19.292392 5.891174-24.269753 7.41283-4.978385 1.521656-15.735379 4.807493-23.904433 7.303336C620.709399 307.69921999999997 620.646977 312.47908299999995 628.73519 315.82836399999997zM514.956843 398.118556c0 8.812713 6.578836 18.859533 14.619976 22.326495l99.535971 42.915415c8.039093 3.465938 14.618952-0.907673 14.618952-9.719362L643.731742 339.36952299999996l0 0-55.402821-22.964014c-8.093329-3.338025-14.716166-13.280468-14.716166-22.091134l0-177.552835 0 0-44.035936-19.127639c-8.04114-3.465938-14.619976 0.906649-14.619976 9.719362L514.956843 398.118556zM396.375098 471.053682c-8.369621 2.556219-8.598842 7.388271-0.508583 10.736529l20.61655 8.531304c8.091282 3.348258 18.783809 7.774057 23.763217 9.832949 4.979408 2.060939 15.671934 6.486738 23.763217 9.834996l10.308787 4.26514c8.091282 3.348258 21.679765 4.453429 30.198789 2.455935l109.470227-25.679869c8.519024-1.997494 8.884344-6.404873 0.809435-9.794064l-91.365894-38.353516c-8.073886-3.38919-21.526269-4.069689-29.896914-1.512447l-29.014824 8.863878c-8.369621 2.557242-19.291368 5.894244-24.270776 7.413853-4.979408 1.521656-15.901155 4.859681-24.270776 7.4159L396.375098 471.053682zM302.420239 171.975049L302.420239 633.0788689999999c0 8.81169 6.578836 18.857487 14.619976 22.323425l99.532901 42.911322c8.042163 3.466961 14.619976-0.904603 14.619976-9.718339l0-174.97308 0 0-75.731822-31.249725c-8.096399-3.340071-14.718213-13.279445-14.718213-22.092158l0-287.983947 0 0-23.703865-10.039657C308.998051 158.792818 302.419216 163.163359 302.420239 171.975049L302.420239 171.975049zM183.836447 706.011948c-8.369621 2.558265-8.598842 7.388271-0.50756 10.736529l78.452793 32.462343c8.090259 3.347235 21.679765 4.452405 30.196743 2.454912l109.47125-25.675776c8.518001-1.997494 8.881274-6.404873 0.809435-9.795087l-91.366917-38.35147c-8.071839-3.390213-21.527292-4.071735-29.895891-1.51347L183.836447 706.011948z"  horiz-adv-x="1024" />

    
    <glyph glyph-name="down" unicode="&#58918;" d="M146.784 363.808M167.776 272.76800000000003L488.352-54.111999999999966c5.12-5.248 11.744-8.064 18.656-8.8 1.248-0.16 2.46399999-0.16 3.68-0.192 1.248 0.032 2.464 0 3.712 0.192 6.912 0.736 13.536 3.58399999 18.656 8.80000001L853.63200001 272.76800000000003c12.096 12.35200001 12.096 32.28800001-1e-8 44.64-12.096 12.35200001-31.648 12.352-43.744 0l-267.744-273.024 0 756.96c0 17.43999999-13.856 31.552-30.944 31.552-0.15999999 0-0.32-0.096-0.48-0.096-0.15999999 0-0.32 0.096-0.48 0.096-17.088 0-30.944-14.112-30.944-31.552L479.296 44.384000000000015l-267.744 273.024c-12.096 12.35200001-31.648 12.352-43.744 0C155.68 305.05600000000004 155.68 285.12 167.776 272.76800000000003z"  horiz-adv-x="1024" />

    
    <glyph glyph-name="map" unicode="&#58922;" d="M500.824985 462.623685c0.059352 0.122797 0.11768 0.181125 0.177032 0.239454-0.177032 0.950651-0.353041 1.661849-0.411369 2.196015C500.708328 464.285534 500.765633 463.45768 500.824985 462.623685L500.824985 462.623685zM671.759075 276.0238 671.759075 276.0238c0 0-0.118704 0-0.118704 0.064468C671.640372 276.0238 671.699724 276.0238 671.759075 276.0238L671.759075 276.0238zM676.151106 275.431306c-1.068332 0.181125-3.441379-0.11768-4.332678 0.592494C671.223886 274.009933 672.052764 273.23529 676.151106 275.431306L676.151106 275.431306zM509.610068 832.207092c-245.825778 0-445.127963-199.243857-445.127963-445.13615 0-245.89127 199.302185-445.135126 445.127963-445.135126 245.892293 0 445.13615 199.243857 445.13615 445.135126C954.746218 632.964258 755.502361 832.207092 509.610068 832.207092L509.610068 832.207092zM793.900903 658.30746c-15.309684-0.474814-25.990954-0.474814-38.340213-8.961092-4.926196-3.445472-8.368598-8.014534-14.59951-9.735735-5.695722-1.544169-11.750625-0.176009-17.392112-2.136663-20.23588-6.824429-16.97051-50.208519-43.61945-43.560098-12.524245 3.02387-21.310352 17.862833-27.65792 27.476795-5.580089 8.5487-15.672958 15.549138-8.785084 26.177196-3.146667-0.832971-6.411013 0.11768-9.496282-0.474814 4.211928 9.376555 18.575054 8.602935 20.954241 13.353123 5.990434 11.985986-16.266475 13.294794-22.615067 14.95562 7.594979 8.129144 11.393491-2.788509 18.932188-0.950651 7.182586 1.779529-3.797489 11.216459-8.132214 12.344143-1.544169 0.415462-26.941606-7.000438-12.283768 6.175653-18.105357 11.510148-36.20355 23.144116-54.366212 34.717709-3.088338-12.877285 24.094768-20.177552 32.996508-24.746614-1.363044-5.342682-9.612938-13.05841-15.962553-10.804067-5.992481 2.137687-3.562129 11.991102-12.524245 11.098779-6.41306-14.956643 13.5936-10.622942 15.432481-19.765159 2.078335-10.44591-7.597025-5.990434-11.278881-5.872754-0.88823 0.059352-7.833409 7.240915-8.187473 1.837858-0.475837-6.470365 11.099802-3.917216 11.870352-10.506285-13.473873-0.533143-20.301372 4.275373-31.159674 11.515265-12.760628 8.485255-19.290345 7.715729-34.898835 7.715729 4.686742 1.89721 11.157107 3.323699 15.0733 6.407943 2.196015 1.725294 10.740622 10.033517 11.275811 11.872399 2.436492 8.010441-0.11768 7.416923-7.77508 12.641925-6.824429 4.686742-15.0733 13.054317-23.323195 14.716166-29.910217 5.936199-9.261944-27.006074-31.924083-31.515784 0.353041-0.059352 0.828878-0.059352 1.12666-0.059352l-1.248434 0c0.058328 0 0.058328 0.059352 0.121773 0.059352-5.222955 0.059352-15.075347 1.36816-18.458397-1.363044-2.431376-1.902326-2.612501-9.794064-5.28026-12.641925-4.750187-5.0449-11.81407-6.053879-17.509792-9.735735-5.579065-3.499707-17.746176-12.69616-20.952194-18.932188-11.984962-22.849404 26.946722-29.971615 41.726334-36.617989 6.64842-3.085268 26.167986-7.182586 29.842679-12.285814 4.867868-6.765077-4.267187-13.118785 5.936199-17.863856 3.264347-1.543146 9.971096-1.842974 12.759605 1.245364 4.510734 5.161556-1.838881 6.230911-2.964518 12.226462-2.078335 11.397584 1.364067 6.882757 7.122211 11.098779 11.750625 8.667404 9.078773 9.142218 4.869914 22.970154-1.961678 6.349615-9.318226 24.213471-2.790556 28.962635 8.425903 6.17156 26.409486-3.38305 32.937157-4.15667 7.482415-0.946558 11.809977-11.392468 15.908318-15.667841 2.729158-2.789533 7.593955-8.78406 12.343119-8.190543 7.599072 1.068332 4.394077 7.656377 8.78713 10.744715 11.80793 8.128121 14.835893-2.910283 19.523659-14.010085 4.451382-10.44591 8.667404-14.240329 16.441461-21.010523 3.681856-3.14155 19.643386-14.182001 18.162662-21.068851-1.010003-4.569062-19.290345-11.574616-24.157189-13.113669-17.863856-5.700839-51.340295 9.255805-54.958706-19.053961 7.001461 2.553149 26.707268 18.637476 32.585139 11.039427 2.666736-3.499707-2.136663-8.544607-1.070378-11.927657 3.442402-10.328229 11.395538-6.705726 19.702738-5.107321-0.533143-0.353041-1.12666-0.651846-1.779529-0.946558 11.397584 5.873778 10.211573 4.628414 15.433504 14.182001 1.720178 3.14769 4.216022 10.628058 6.646374 12.818957 8.309246 7.599072 9.553587 2.378164 14.657838-3.559059 1.308809-1.484817 14.010085-19.765159 9.499351-18.872836-14.72026 3.024893-28.906353 2.612501-41.075511-5.460362-7.05672-4.627391-13.706163-10.981099-22.137183-14.06432-2.01489-0.715291-16.971533-2.196015-15.249309 0.353041 2.610454 3.740184 11.513218 6.236028 14.954597 10.211573-9.676383 3.975545-17.803481-4.808516-25.402553-9.971096-8.132214-3.799536-9.971096-10.981099-16.853853-17.21201-2.970658-2.729158-8.667404-3.206018-11.631922-6.769171-2.913353-3.499707-3.207042-8.901741-5.936199-12.283768-1.90335-2.314719-6.830569-0.946558-8.78713-4.39203-2.610454-4.569062 2.373047-8.843412 1.303692-12.108782-2.013867-5.932106-13.353123-10.975982-17.684778-15.250332 0.592494 0.593518 1.190105 1.128707 1.720178 1.720178-4.387937-4.627391-9.907651-8.010441-13.354146-13.353123 1.602498-7.479345 6.529717-25.343201 5.108345-29.437449-4.514827-13.535271-13.292748 7.299243-16.914228 12.760628-12.339026 18.576077-36.972053 6.17156-53.708226 4.570085-21.48636-1.961678-42.555212-29.853935-29.319769-52.52733 6.353708-10.858302 17.09433-15.074324 29.378098-12.583596 10.921747 2.319835 14.187117 17.569144 24.452925 17.868973 18.932188 0.473791 0.474814-18.580171-1.187035-25.584702-1.484817-6.407943 2.373047-7.000438 9.020444-8.662287 4.925173-1.186012 11.93175 2.137687 16.145725-0.710175 2.665713-1.725294 2.548032-11.45489 6.287193-8.371668-7.296173-6.049786-5.575995-20.354584 1.836835-25.520233 8.3072-5.756097 18.042935-0.475837 26.64587-2.608407 16.442484-4.157693 8.608052 1.245364 22.912849 9.911744 9.731642 5.815449 11.275811-1.130753 17.97949-1.130753 4.453429 0 7.363711 6.470365 14.899338 4.631484 6.112208-1.602498 8.5487-6.352685 15.848966-7.42204 3.024893-0.411369 6.17156 1.191128 8.961092 0.832971 13.5936-1.484817 23.917736-10.147104 34.662451-18.044982 8.78099-6.407943 14.598486-5.103228 24.928762-8.068769 7.534604-2.137687 21.36254-13.060457 20.710694-22.614044-0.11768-1.661849-6.705726-10.269901-7.833409-14.128789 1.89721-1.303692 15.313777 1.661849 19.166525 1.901303-1.245364-1.426489-10.382465-7.892761-10.382465-4.451382 0-1.721201 6.40692-5.343705 8.010441-6.412037 4.750187 15.431457 12.58462 5.519714 21.960151 1.661849 8.012488-3.264347 17.865903-3.441379 26.351158-5.461385 7.181563-1.721201 23.147186-6.647397 28.490891-12.520151 6.411013-7.122211 1.957585-18.637476-2.789533-25.819039-6.230911-9.259898-15.667841-12.818957-19.525706-23.740704-3.088338-8.662287-0.833995-17.32969-2.553149-26.942629-2.373047-13.000082-4.276397-8.490372-12.642948-16.32378-7.062859-6.647397-0.116657-5.519714-9.730619-9.794064-9.559727-4.210905-18.044982-3.024893-24.750707-13.588483 0.294712 0.710175 0.534166 1.303692 0.710175 2.020006-2.789533-3.921309-4.210905-11.991102-5.580089-14.603603-3.322675-6.706749-7.951089-11.039427-13.291724-16.618493-2.023076-2.137687-20.772093-27.717272-21.841447-25.697265-1.367137 2.671852-16.084327-2.670829-16.797571 1.187035 0.590448-3.207042-0.178055-2.137687 3.5038-3.917216-3.38305-21.010523-12.226462-24.157189-32.883945-24.393573 1.721201-10.092869-7.476275-8.073886-11.811-13.534248-2.493797-3.207042-3.738138-12.108782-5.460362-16.142655-1.066285-2.613524-9.078773-12.93766-9.078773-14.956643-0.057305-1.89721 2.667759-4.627391 5.221932-7.299243-14.541181-2.907213-29.320793-4.926196-44.452421-6.17156 2.847861 3.617387 3.560082 6.647397-5.460362 7.122211 2.373047 6.466272 8.068769 10.265808 10.444886 16.560164 1.128707 2.965541 0.178055 4.152577 1.187035 7.118118 3.264347 10.211573 1.838881 6.294356 0 14.245446-4.331655 18.579147 1.544169 23.683399 6.588045 40.717354 5.220908 17.505699 4.686742 40.179095 8.069793 58.992579 1.544169 9.024537 4.15667 27.7756 1.069355 36.264948-3.559059 9.613962-19.049868 17.153682-26.113751 23.559579-10.088776 9.143241-15.433504 19.054985-22.908756 30.447453-3.740184 5.760191-8.132214 11.339256-11.098779 17.628496-6.293333 13.412474 0 5.461385 1.127683 13.354146 1.010003 7.656377-0.950651 14.422478 2.078335 22.437012 3.384074 8.844435 11.69332 14.363126 14.422478 23.325241 2.489704 8.009418 0.653893 17.980513-7.538697 20.594037-4.569062 1.484817-9.55461-1.89721-14.128789-1.187035-6.346545 1.010003-13.524015 5.815449-18.566868 9.613962-7.005554 5.284353-9.613962 13.887288-17.034978 18.995633-6.17156 4.152577-10.622942 1.661849-17.270339 3.676739-7.005554 2.020006-11.274788 10.621918-16.917298 13.234419-8.367575 4.033873-13.054317-1.721201-22.01541-0.534166-7.53972 0.950651-19.054985 9.31925-26.055422 12.525268-14.364149 6.348592-23.088858 13.471826-28.849048 28.010961-4.922103 12.465916-12.044314 18.280342-20.476357 28.728298-8.544607 10.504238-11.216459 19.466354-24.329105 22.319331-1.602498 0.292666 3.142573-11.099802 3.676739-12.050454 4.691859-8.66638 11.749602-16.618493 17.393135-24.750707 8.426927-11.927657 4.862751-14.182001-3.681856-2.671852-9.736758 13.235442-21.010523 26.412556-29.438473 40.418548-3.204995 5.225001-2.612501 8.667404-7.832386 13.652951-5.050016 4.926196-11.755742 7.299243-16.85897 11.869329-18.399045 16.559141-21.780049 38.696324-19.643386 62.320371 0.651846 7.716752 3.441379 13.82896 2.196015 21.245883-0.951675 6.1777-4.631484 11.221576-9.142218 15.732309-1.422396 2.313695-5.161556 8.068769-5.342682 8.366551-4.151553 6.942109-7.417947 13.770632-14.06432 19.466354-3.741207 3.324722-13.651928 10.981099-22.967084 17.388019 41.723264 52.051493 96.263437 93.185332 158.88466 118.823246 0.470721-3.146667 1.837858-6.230911 3.857864-9.258874 5.16258-7.652284 10.029424-7.059789 20.1182-9.138124-1.067308-11.692297-14.72026-11.749602-23.916712-10.505261-10.981099 1.544169-22.614044 5.161556-32.168654-4.451382 5.279237-3.206018 19.761066-15.549138 17.863856-2.670829 10.56359 0.593518 20.770046 0.892323 30.980595-0.357134 4.152577-0.594541 18.040888-5.221932 21.780049-3.085268 1.603521 0.88823 3.26537 8.662287 4.986571 11.098779-2.965541 0-6.113231 1.422396-9.019421 1.186012 6.823406 8.725732 13.589506 1.89721 22.373567-2.078335-9.67229-5.872754-3.975545-19.882839 5.402033-8.485255 7.715729 9.259898-1.89721 16.084327-11.632945 21.427008 9.853415 12.344143 15.907295 13.471826 25.104771-0.474814 1.602498 8.602935 8.490372 5.220908 15.730263 4.50971l0 2.255367c-3.206018-0.118704-6.588045 1.720178-9.735735 1.363044 7.358595 11.754718 2.671852 14.422478 13.177114 18.343787 8.367575 2.966565 32.340569 0.118704 35.250852 8.010441-16.73515-3.204995-36.972053-3.976568-52.046377-11.632945-6.470365-3.264347-14.245446-13.651928-20.775162-6.883781-6.647397 6.883781 4.750187 17.981537 10.622942 21.364587l-1.422396 0c26.471908 5.695722 53.889351 8.725732 82.074274 8.725732 18.222013 0 36.084846-1.36816 53.594639-3.741207-6.053879-3.264347-1.544169-5.460362-5.995551-8.662287-8.42488-6.176676-23.440875-11.397584-33.469276-15.314801 12.758582 0.059352 43.677778-11.93175 49.612954 5.936199-4.093225 0.652869-8.191566 1.246387-12.344143 1.956561 7.715729 5.103228 16.261359 9.200546 25.344225 12.226462 81.370239-16.084327 153.719011-57.390082 208.798467-115.25907C794.734898 658.30746 794.317389 658.30746 793.900903 658.30746L793.900903 658.30746zM866.016361 502.037347c0.711198 1.539053 2.431376 2.073218 3.142573 3.382027 1.484817 2.670829 1.191128 4.50971 2.968611 6.823406 1.957585 2.555196 4.629437 3.14769 6.765077 5.104251 0.952698 0.832971 1.427512 1.544169 1.781576 2.313695 6.588045-18.33867 11.813047-37.33021 15.669888-56.737212-0.12075-0.177032-0.239454-0.35918-0.35918-0.476861-0.949628-0.769526-7.18054-1.661849-8.484232-1.720178-4.513804-0.177032-7.897877 2.847861-11.162224 5.637394-3.323699 2.907213-7.181563 6.707772-9.553587 10.446933-2.490727 3.916193-0.951675 8.073886-0.77055 12.58462C866.251721 493.192911 864.413863 498.590851 866.016361 502.037347L866.016361 502.037347zM871.062284 297.927669c-7.6574 6.647397-16.617469 15.608489-22.079878 24.157189-5.819542 9.138124-2.196015 18.574031-1.778506 29.138644 0.352017 8.785084-3.916193 21.366633-0.239454 29.318746 1.720178 3.681856 5.700839 4.867868 7.303336 7.833409 3.499707 6.294356 2.725064 10.564613 6.942109 16.024975 4.508687 5.818519 10.680247 7.240915 15.666818 11.754718 5.344728 4.804423 5.166673 8.603959 8.608052 14.716166 2.432399 4.451382 8.250918 11.93175 13.650905 15.907295 3.025916-19.466354 4.630461-39.408545 4.630461-59.70787 0-35.07382-4.691859-69.084425-13.355169-101.429087C883.050316 287.480736 876.934015 292.823418 871.062284 297.927669L871.062284 297.927669zM871.062284 297.927669"  horiz-adv-x="1024" />

    
    <glyph glyph-name="copy" unicode="&#58907;" d="M731.68184 219.94252700000004L731.68184 712.676741c0 30.233582-24.512277 54.745858-54.747905 54.745858L184.216093 767.422599c-30.233582 0-54.746882-24.512277-54.746882-54.745858l0-492.734214c0-30.207999 24.5133-54.746882 54.746882-54.746882l492.717841 0C707.16854 165.195645 731.68184 189.73452799999995 731.68184 219.94252700000004zM622.1891 219.94252700000004L238.962975 219.94252700000004c-30.233582 0-54.746882 24.538883-54.746882 54.745858L184.216093 657.92986c0 30.233582 24.5133 54.746882 54.746882 54.746882l383.226125 0c30.233582 0 54.744835-24.512277 54.744835-54.746882l0-383.242498C676.933935 244.48140999999998 652.421658 219.94252700000004 622.1891 219.94252700000004zM841.17458 603.182978l-54.745858 0 0-54.746882c30.232558 0 54.745858-24.5133 54.745858-54.759161l0-383.228171c0-30.206976-24.5133-54.745858-54.745858-54.745858L403.201573 55.70290499999999c-30.233582 0-54.746882 24.538883-54.746882 54.745858l-54.746882 0 0-54.745858c0-30.207999 24.5133-54.747905 54.746882-54.747905l492.719888 0c30.234605 0 54.747905 24.539906 54.747905 54.747905L895.922485 548.436096C895.922485 578.670701 871.408161 603.182978 841.17458 603.182978z"  horiz-adv-x="1024" />

    
    <glyph glyph-name="datasource-o" unicode="&#58946;" d="M697.4 733L538.2 824.9c-15.4 8.9-34.5 8.9-49.8 0L329.2 733c-15.4-8.9-24.9-25.4-24.9-43.2l0-183.8c0-17.7 9.5-34.3 24.9-43.1l159.1-91.8c15.4-8.9 34.5-8.9 49.8 0L697.3 463c15.4 8.9 24.9 25.4 25 43.1l0 183.8C722.3 707.6 712.8 724.1 697.4 733zM661.2 512.6l-148-85.4-148 85.4L365.2 683.4l148 85.4 148-85.4L661.2 512.6zM457.9 305.20000000000005l-159.2 91.9c-15.4 8.9-34.5 8.9-49.8 0L89.8 305.20000000000005c-15.4-8.9-24.9-25.4-24.9-43.2l0-183.8c0-17.7 9.5-34.3 24.9-43.1l159.1-91.8c15.4-8.9 34.5-8.9 49.8 0l159.2 91.9c15.4 8.9 24.9 25.4 25 43.1l0 183.8C482.9 279.79999999999995 473.3 296.29999999999995 457.9 305.20000000000005zM421.8 84.79999999999995l-148-85.4-148 85.4L125.8 255.60000000000002l148 85.4 148-85.4L421.8 84.79999999999995zM936.8 305.20000000000005l-159.2 91.9c-15.4 8.9-34.5 8.9-49.8 0l-159.2-91.9c-15.4-8.9-24.9-25.4-24.9-43.2l0-183.8c0-17.7 9.5-34.3 24.9-43.1l159.1-91.8c15.4-8.9 34.5-8.9 49.8 0l159.2 91.9c15.4 8.9 24.9 25.4 25 43.1l0 183.8C961.8 279.79999999999995 952.2 296.29999999999995 936.8 305.20000000000005zM900.7 84.79999999999995l-148-85.4-148 85.4L604.7 255.60000000000002l148 85.4 148-85.4L900.7 84.79999999999995z"  horiz-adv-x="1024" />

    
    <glyph glyph-name="bottom" unicode="&#59049;" d="M174.486498 396.69820699l308.405045-310.43016798c6.833639-6.867408 15.761985-10.1645 24.656563-10.09593901 1.201361-0.10335399 2.231831-0.686638 3.432169-0.686638 5.015224 0 9.68457 1.167592 13.978363 3.090385 4.32551499 1.647523 8.445346 4.155646 11.948123 7.658424l278.290167 277.807167c13.426801 13.392008 13.46057 35.130102 0.034792 48.556902-6.695492 6.729262-15.487739 10.096962-24.312732 10.096962-8.7902 0-17.546631-3.367701-24.27794-10.028401l-221.320665-220.97581 0 604.927459c0 18.99154-15.384385 34.340109-34.340109 34.340109-18.95265399 0-34.340109-15.34857-34.340109-34.340109L476.640166 190.00775099999998l-253.46066601 255.111259c-6.696516 6.730285-15.557324 10.129708-24.34752399 10.129708s-17.512862-3.331885-24.208355-9.994632C161.127236 431.897893 161.09449 410.123984 174.486498 396.69820699zM133.242142 6.805242000000021L888.717386 6.805242000000021c18.954701 0 34.340109-15.384385 34.340109-34.340109s-15.384385-34.340109-34.340109-34.340109l-755.475244 0c-18.98847 0-34.339086 15.384385-34.339086 34.340109S114.254695 6.805242000000021 133.242142 6.805242000000021z"  horiz-adv-x="1024" />

    
    <glyph glyph-name="pause" unicode="&#59576;" d="M448 24.4 448 743.8c0 13.4-10.8 24.2-24.4 24.2l-143.2 0c-13.6 0-24.4-10.8-24.4-24.2l0-719.4c0-13.4 10.8-24.4 24.4-24.4l143.2 0C437.2 0 448 10.8 448 24.4zM743.6 768l-143.2 0c-13.4 0-24.4-10.8-24.4-24.2l0-719.4c0-13.4 10.8-24.4 24.4-24.4l143.2 0c13.4 0 24.4 10.8 24.4 24.4L768 743.8C768 757.2 757.2 768 743.6 768z"  horiz-adv-x="1024" />

    
    <glyph glyph-name="star" unicode="&#58919;" d="M958.733019 484.651374L659.258367 542.40473 511.998465 810.464905 364.741633 542.40473 65.265958 484.651374 273.72878 261.255445 235.88794-42.463881000000015 511.998465 87.52056500000003 788.091594-42.463881000000015 750.250754 261.255445Z"  horiz-adv-x="1024" />

    
    <glyph glyph-name="plane" unicode="&#59006;" d="M63.791885 340.113467l896.41623 448.208115L790.262538 112.274342 459.709053 216.855212l295.070342 360.434026-380.976898-334.288552L63.791885 340.113467 63.791885 340.113467zM448.50385 164.564265l108.316961-31.747051-84.039022-153.137773L448.50385 164.564265 448.50385 164.564265z"  horiz-adv-x="1024" />

    
    <glyph glyph-name="exit" unicode="&#58936;" d="M689.664 723.008l0-133.781333c89.28-58.176 148.394667-158.698667 148.394667-273.216 0-180.032-145.984-325.994667-326.058667-325.994667-180.032 0-326.016 145.962667-326.016 325.994667 0 101.781333 46.634667 192.618667 119.722667 252.437333L305.706667 709.226667C164.373333 634.901333 67.968 486.784 67.968 316.05333299999995 67.968 70.82666700000004 266.794667-128 512.042667-128c245.205333 0 443.989333 198.826667 443.989333 444.053333C956.010667 498.112 846.464 654.4639999999999 689.664 723.008zM577.344 436.010667c0-28.693333-29.248-51.989333-65.344-51.989333l0 0c-36.053333 0-65.322667 23.274667-65.322667 51.989333L446.677333 844.010667C446.677333 872.725333 475.946667 896 512 896l0 0c36.096 0 65.344-23.274667 65.344-51.989333L577.344 436.010667z"  horiz-adv-x="1024" />

    
    <glyph glyph-name="user" unicode="&#59055;" d="M515.434 828.021c-245.743 0-444.958-199.214-444.958-444.958 0-245.746 199.214-444.963 444.958-444.963 245.746 0 444.963 199.217 444.963 444.963 0 245.743-199.217 444.958-444.963 444.958v0zM797.275 114.447c-29.633 25.881-80.542 59.684-91.207 66.949v0c-21.819 15.25-89.323 42.434-118.018 50.114-13.463 6.377-13.259 32.942-13.005 39.397h-1.469c44.295 33.205 74.821 99.591 74.821 167.721 0 97.765-22.986 192.057-132.996 192.057-110.287 0-132.996-95.593-132.996-192.057 0-67.346 30.656-134.292 75.116-167.721h-1.759c0.251-6.458 0.454-33.022-13.009-39.397-28.695-7.676-98.407-36.494-118.018-50.114-7.973-5.535-61.71-41.467-90.493-67.625-66.991 69.932-108.151 164.803-108.151 269.292 0 215.024 174.314 389.338 389.338 389.338 215.028 0 389.343-174.314 389.343-389.338 0.001-104.151-40.892-198.748-107.5-268.614v0zM797.275 114.447z"  horiz-adv-x="1024" />

    
    <glyph glyph-name="bar-chart" unicode="&#58933;" d="M365.714286 384l0-292.571429-146.285714 0 0 292.571429 146.285714 0z m219.428571 292.571429l0-585.142857-146.285714 0 0 585.142857 146.285714 0z m585.142857-658.285714l0-73.142857-1170.285714 0 0 877.714286 73.142857 0 0-804.571429 1097.142857 0z m-365.714286 512l0-438.857143-146.285714 0 0 438.857143 146.285714 0z m219.428571 219.428571l0-658.285714-146.285714 0 0 658.285714 146.285714 0z"  horiz-adv-x="1171" />

    
    <glyph glyph-name="prev" unicode="&#59005;" d="M868.472296 733.954347l-499.349889-352.416422 499.349889-352.461447L868.472296 733.954347zM281.080212 733.95434699l-117.523647 1e-8 0-704.877869 117.523647 1e-8L281.080212 733.95434699z"  horiz-adv-x="1024" />

    
    <glyph glyph-name="logout" unicode="&#58894;" d="M288.069393 833.368544L288.069393 606.2713160000001 344.023776 606.2713160000001 344.023776 775.0656730000001 790.028713 775.0656730000001 790.028713-5.199162999999999 344.023776-5.199162999999999 344.023776 160.21112100000005 288.069393 160.21112100000005 288.069393-65.74102800000003 958.879352-65.74102800000003 958.879352 833.368544ZM680.249447 383.049349L455.443401 606.053352 455.443401 494.469997 64.519967 494.469997 64.519967 270.86735999999996 455.443401 270.86735999999996 455.443401 160.101627Z"  horiz-adv-x="1024" />

    
    <glyph glyph-name="delete" unicode="&#58968;" d="M379.941823 760.341321c0 4.13825 0 13.759375 18.327414 13.759375l236.221026 0c4.837168 0 20.639063-0.968048 20.639063-13.759375l0-41.278125 55.037501 0 0 41.278125c0 39.881312-31.818683 68.795852-75.676563 68.795852L398.269237 829.137173c-43.213197 0-73.364915-28.27088-73.364915-68.795852l0-41.278125 55.037501 0L379.941823 760.341321zM869.744265 718.955748L154.254711 718.955748c-15.210423 0-27.51875-12.308327-27.51875-27.51875 0-15.210423 12.307304-27.519774 27.51875-27.519774l60.358693 0 0-651.906423c0-40.364313 37.515429-73.15002 83.631746-73.15002l440.300005 0c46.115294 0 83.631746 39.504736 83.631746 88.039125L822.1769 663.9182470000001l47.566342 0c15.210423 0 27.51875 12.308327 27.51875 27.519774C897.261992 706.647421 884.954689 718.955748 869.744265 718.955748zM764.989433 26.90092900000002c0-16.715707-12.093433-30.851659-26.444279-30.851659L298.24515-3.950729000000024c-14.889105 0-26.444279 8.599865-26.444279 15.963577L271.800871 663.9182470000001l493.188562 0L764.989433 26.90092900000002zM408.803151 105.802954c15.210423 0 27.519774 12.307304 27.519774 27.51875L436.322925 518.584208c0 15.210423-12.308327 27.51875-27.519774 27.51875-15.2094 0-27.51875-12.307304-27.51875-27.51875l0-385.263527C381.285424 118.11025700000005 393.593751 105.802954 408.803151 105.802954zM518.879176 105.802954c15.210423 0 27.519774 12.307304 27.519774 27.51875L546.39895 518.584208c0 15.210423-12.308327 27.51875-27.519774 27.51875s-27.51875-12.307304-27.51875-27.51875l0-385.263527C491.360426 118.11025700000005 503.667729 105.802954 518.879176 105.802954zM628.954177 105.802954c15.210423 0 27.519774 12.307304 27.519774 27.51875L656.473951 518.584208c0 15.210423-12.308327 27.51875-27.519774 27.51875s-27.51875-12.307304-27.51875-27.51875l0-385.263527C601.435427 118.11025700000005 613.743754 105.802954 628.954177 105.802954z"  horiz-adv-x="1024" />

    
    <glyph glyph-name="plugin" unicode="&#58952;" d="M60.278537 408.968192L60.278537 359.03180799999996 536.968192 835.721463 487.031808 835.721463 625.474525 697.278764C645.303119 677.450169 679.220807 687.534009 684.996078 714.9747199999999 697.858966 776.0917010000001 752.070338 820.588332 815.363443 820.588332 888.941515 820.588332 948.588332 760.941515 948.588332 687.363443 948.588332 624.070338 904.091701 569.858966 842.97472 556.996078 815.534009 551.2208069999999 805.450169 517.3031189999999 825.278764 497.474525L963.721463 359.03180799999996 963.721463 408.968192 821.98362 267.230332 881.81993 247.83305299999995C866.119292 346.102766 781.052963 419.310345 680.535252 419.310345 567.954432 419.310345 476.689655 328.045568 476.689655 215.464748 476.689655 114.94703700000002 549.897234 29.880708000000027 648.166947 14.18007L628.769668 74.01638000000003 487.031808-67.72146299999997 536.968192-67.72146299999997 60.278537 408.968192ZM536.968192-117.65784699999995L678.706035 24.080013000000008C699.091262 44.46522300000004 687.77675 79.36796200000003 659.308756 83.91630599999996 595.175848 94.16287299999999 547.310345 149.782016 547.310345 215.464748 547.310345 289.04283799999996 606.957162 348.689655 680.535252 348.689655 746.217984 348.689655 801.837127 300.824152 812.083694 236.69124399999998 816.632038 208.22325 851.534777 196.90873799999997 871.919987 217.29396499999996L1013.657847 359.03180799999996C1027.447384 372.821363 1027.447384 395.178637 1013.657847 408.968192L875.21513 547.410891 857.519157 487.889337C951.156701 507.596623 1019.209022 590.506478 1019.209022 687.363443 1019.209022 799.944245 927.944245 891.209027 815.363443 891.209027 718.506478 891.209027 635.596623 823.156701 615.889337 729.519157L675.410891 747.21513 536.968192 885.65784C523.178637 899.447386 500.821363 899.447386 487.031808 885.65784L10.342153 408.968192C-3.447384 395.178637-3.447384 372.821363 10.342153 359.03180799999996L487.031808-117.65784699999995C500.821363-131.44738400000006 523.178637-131.44738400000006 536.968192-117.65784699999995Z"  horiz-adv-x="1024" />

    
    <glyph glyph-name="doc" unicode="&#58978;" d="M312.888889 827.733333L170.666667 696.8888890000001h142.222222zM369.777778 839.111111v-199.111111H170.666667v-711.111111h682.666666V839.111111H369.777778z m341.333333-739.555555H312.888889v56.888888h398.222222v-56.888888z m0 142.222222H312.888889v56.888889h398.222222v-56.888889z m0 142.222222H312.888889v56.888889h398.222222v-56.888889z"  horiz-adv-x="1024" />

    
    <glyph glyph-name="user12" unicode="&#58940;" d="M512-128C229.229714-128 0 101.22971399999994 0 384S229.229714 896 512 896s512-229.229714 512-512-229.229714-512-512-512z m0 927.98781C282.258286 799.98781 96.01219 613.741714 96.01219 384c0-107.446857 41.081905-205.04381 107.934477-278.869333 60.269714 29.135238 38.13181 4.87619 116.955428 37.351619 80.676571 33.133714 99.791238 44.714667 99.791238 44.714666l0.75581 76.434286s-30.208 22.942476-39.594667 94.866286c-18.919619-5.436952-25.161143 22.016-26.282666 39.497143-0.999619 16.896-10.922667 69.632 12.117333 64.877714-4.705524 35.206095-8.094476 66.950095-6.436572 83.772952 5.778286 59.050667 63.097905 120.758857 151.356953 125.269334 103.838476-4.510476 144.969143-66.169905 150.723047-125.220572 1.682286-16.822857-2.023619-48.615619-6.729142-83.748571 23.064381 4.681143 13.04381-47.957333 11.922285-64.853334-1.024-17.481143-7.41181-44.836571-26.258285-39.424-9.435429-71.899429-39.643429-94.671238-39.643429-94.671238l0.707048-76.04419s19.090286-10.825143 99.766857-43.983238c78.823619-32.451048 56.710095-9.630476 116.955428-38.838857 66.876952 73.801143 107.958857 171.422476 107.958857 278.869333 0 229.741714-186.270476 415.98781-416.01219 415.98781z"  horiz-adv-x="1024" />

    
    <glyph glyph-name="postgresql" unicode="&#58949;" d="M897.586312 640.01174a30.286688 30.286688 0 0 0 30.250564-30.250563v-451.518741a30.286688 30.286688 0 0 0-30.250564-30.250564H126.178879a30.286688 30.286688 0 0 0-30.250563 30.250564V609.761177a30.286688 30.286688 0 0 0 30.250563 30.250563h771.407433m0 31.988147H126.178879A62.23871 62.23871 0 0 1 63.940169 609.761177v-451.518741a62.23871 62.23871 0 0 1 62.23871-62.238711h771.407433A62.23871 62.23871 0 0 1 959.825022 158.242436V609.761177a62.23871 62.23871 0 0 1-62.23871 62.23871zM633.939682 526.899053a101.361424 101.361424 0 0 1-18.531812 26.370804 34.108648 34.108648 0 0 1-11.086575 7.647533 33.335586 33.335586 0 0 1-13.084253 2.720167h-34.144773A74.271744 74.271744 0 0 1 522.394793 573.770448a73.422821 73.422821 0 0 1-40.459316-10.132891h-33.667931c-15.302291 0-28.093938-2.239712-38.020919-6.563802-9.052772-3.941171-15.894731-9.710236-20.363319-17.097673-2.889951-4.804544-4.56251-11.339446-5.057414-19.9515-0.390143-6.574639-0.093923-14.399182 0.885047-23.235208 1.705071-15.40344 5.144113-30.947764 7.56806-39.574268l0.505741-1.80622c2.145789-7.669208 5.386146-19.261524 10.010069-29.889319 6.054448-13.918727 12.914469-22.675279 20.952145-26.771785a23.148509 23.148509 0 0 1 9.518777-2.553994q0.505741-0.021675 1.011483-0.021675a25.214824 25.214824 0 0 1 9.341767 1.867631 30.45286 30.45286 0 0 1 15.602124 14.193272l2.051865 3.901434q1.174043-1.083732 2.431171-2.087989a61.154979 61.154979 0 0 1 11.534518-7.28629 71.165047 71.165047 0 0 0-9.204495-6.408466c-0.307057-0.180622-0.624952-0.361244-0.939234-0.538254a14.424469 14.424469 0 0 1-7.149016-14.630377 14.20411 14.20411 0 0 1 10.79758-12.069159 59.00919 59.00919 0 0 1 13.532196-1.578636 57.600339 57.600339 0 0 1 6.697462 0.390144 58.637109 58.637109 0 0 1 12.600187 2.911626v-20.273008a36.351973 36.351973 0 0 1 2.752678-13.929564 35.763145 35.763145 0 0 1 7.481361-11.371958 34.657739 34.657739 0 0 1 11.0938-7.629471 33.895514 33.895514 0 0 1 13.589995-2.788803h0.039737a33.956926 33.956926 0 0 1 13.579158 2.763516 34.711926 34.711926 0 0 1 11.10825 7.647533 35.712571 35.712571 0 0 1 7.499423 11.368346 36.301399 36.301399 0 0 1 2.763516 13.936789v25.735015c1.231842-0.086699 2.528707-0.130048 3.785836-0.130048a63.752322 63.752322 0 0 1 18.318677 2.79964 85.567841 85.567841 0 0 1 22.176763 10.476073 11.70069 11.70069 0 0 1 5.057415 11.989685 11.462269 11.462269 0 0 1-9.031098 9.251456 87.247625 87.247625 0 0 0-21.468724 7.091218l37.930608 51.838498a51.932422 51.932422 0 0 1 4.688946 53.287087z m-194.710458-114.658812c-2.940525-1.17043-5.368084-1.123469-7.871504 0.14811-3.27287 1.665334-8.355571 6.36873-13.994589 19.322936-4.197654 9.648824-7.264615 20.619801-9.294805 27.880804l-0.512966 1.827894a256.772159 256.772159 0 0 0-7.083993 37.070848c-2.528707 22.89925 0.59244 31.005563 2.051865 33.425897 2.810477 4.652821 7.362151 8.402533 13.528584 11.086576 8.084638 3.518516 18.91473 5.33196 32.208505 5.331959h16.082578c-8.467557-10.3677-13.857316-23.480853-15.764683-38.400225-0.411818-3.215071-0.722488-6.567414-0.899497-9.955882l-0.032512-0.205909v-56.736966l0.046961-0.28177c0.050574-0.693588 0.588828-6.480715 4.446913-13.727268l-5.028515-9.572963a15.40344 15.40344 0 0 0-7.878729-7.214041z m27.241402 21.916667a27.205278 27.205278 0 0 0-3.941171 9.616313v48.309145H474.313231a10.996264 10.996264 0 0 1-0.155335-1.806219c0-5.180237 4.100118-9.421241 9.157533-9.421241s9.157533 4.183204 9.157532 9.363442c0 0.307057 0 0.60689-0.043349 0.910335a16.255975 16.255975 0 0 0 10.895116-15.428727v-10.898728a76.128538 76.128538 0 0 0-9.703011-37.28037 73.946625 73.946625 0 0 0-6.061673-9.135858 50.371848 50.371848 0 0 0-13.178177 7.246552 35.156256 35.156256 0 0 0-7.907629 8.525356z m21.815519-47.098978a43.746635 43.746635 0 0 0-13.149278 0.469617 86.517912 86.517912 0 0 1 16.053679 12.38344 26.732048 26.732048 0 0 0 8.496456-9.945044 45.108525 45.108525 0 0 0-11.400857-2.911626z m69.290191 2.041028v-34.552979a20.52949 20.52949 0 0 0-5.888276-14.47143 19.64083 19.64083 0 0 0-14.178823-5.953299h-0.018062a19.615543 19.615543 0 0 0-14.171598 5.964136 20.52949 20.52949 0 0 0-5.873825 14.449756V377.615014c0 13.550258-6.245907 25.944536-16.367961 33.769079a89.321165 89.321165 0 0 1 5.418658 8.500069 91.680087 91.680087 0 0 1 11.689853 44.902616v10.905953a31.984534 31.984534 0 0 1-2.423947 12.257005 31.428219 31.428219 0 0 1-6.585476 10.006456 30.745468 30.745468 0 0 1-9.753585 6.791385 29.983243 29.983243 0 0 1-11.964398 2.528708h-24.203341c0.0289 0.205909 0.057799 0.44433 0.090311 0.686363 1.083732 8.539806 3.558252 16.255975 7.318802 22.985949a52.22503 52.22503 0 0 0 13.488847 15.775521c10.3677 8.099088 23.748173 12.253393 37.677738 11.700689s26.89822-5.732941 36.594006-14.597865a52.18168 52.18168 0 0 0 12.224493-16.711143 61.884691 61.884691 0 0 0 5.277773-19.843127h-6.863634a28.574392 28.574392 0 0 1-20.551165-8.771002 30.019367 30.019367 0 0 1-8.510906-21.082193 75.536098 75.536098 0 0 1 6.108635-29.892932 73.180788 73.180788 0 0 1 17.372218-24.828293q2.564832-2.402272 5.321123-4.580573c-0.054187-0.057799-0.097536-0.122823-0.14811-0.180622a42.854363 42.854363 0 0 1-11.075738-28.841712z m2.615405 99.63829a9.229781 9.229781 0 0 1 9.031098-7.925691 9.031097 9.031097 0 0 1 6.990069 3.323444l-0.028899-40.845847v-0.455167a42.493119 42.493119 0 0 0-0.657464-10.718107q-1.047607 0.90311-2.051866 1.845957c-11.837962 11.061288-18.625735 26.890995-18.625735 43.435965a14.64844 14.64844 0 0 0 5.34641 11.335834z m30.192765-91.145447c-5.935237-1.77732-11.693465-2.467296-17.187984-2.069927a27.454536 27.454536 0 0 0 6.347055 12.047484c0.614115 0.682751 1.246291 1.423301 1.874856 2.22165a97.01566 97.01566 0 0 1 19.597481-7.947366 66.692847 66.692847 0 0 0-10.631408-4.26629z m33.769079 103.362715a36.124389 36.124389 0 0 0-6.81306-18.181405l-26.255206-35.875131 0.0289 52.52125a38.425513 38.425513 0 0 1-0.075862 5.010453v0.025287c-0.820024 17.065161-6.426529 32.074845-16.136764 43.876683h16.331836a18.809969 18.809969 0 0 0 7.383825-1.535287 19.200113 19.200113 0 0 0 6.260357-4.302414 86.181955 86.181955 0 0 0 15.746621-22.397122 36.395322 36.395322 0 0 0 3.529353-19.145926zM169.13439 230.84162100000003h-29.444989v-38.768695h-11.776551v99.128937h42.204124q31.894223-1.473875 34.350682-28.953698-0.494904-30.915252-35.333266-31.406544z m-1.961554 51.043762h-27.483435v-41.221541h27.479823q25.511044 0 25.518268 21.591548-0.986196 19.131477-25.514656 19.629993zM251.577472 266.174886q32.389127-1.470263 33.85939-38.291853-0.494904-36.803528-35.333265-37.294819-32.873194 1.965167-34.841974 36.80714 1.484712 37.793336 36.315849 38.779532zM250.598501 198.438043q23.06181 0.978971 23.556714 29.44499-0.989808 27.971115-23.556714 29.44499-22.577743-0.989808-23.556715-29.936282 0.978971-26.981306 23.556715-28.953698zM355.124421 247.03618400000005l-11.285259-1.961554q-3.439042 12.755522-17.664827 12.759134-16.689468-0.494904-17.177147-12.282292-1.473875-8.832413 20.121285-12.282292h0.982584a37.999245 37.999245 0 0 0 6.863634-1.961555q21.587935-4.909304 21.100255-19.629993-0.494904-20.12851-29.936281-20.612576-27.971115-0.978971-32.873194 21.100255l10.79758 2.452846q2.944138-16.689468 21.591547-16.194563t19.145926 13.250426q0.978971 8.832413-15.21198 12.282292h-1.473875a60.32773 60.32773 0 0 0-6.863634 1.961554q-26.00956 4.418013-25.026977 19.629994 0.978971 19.622768 26.992144 20.608964 25.008915 0.018062 29.918219-19.12064zM388.983811 290.21927900000003v-26.00956h15.703272V255.87582199999997h-15.703272v-46.618524q-0.494904-11.296097 8.341122-10.79758c2.944138 0 5.230812 0.491292 6.863633 1.473875l1.961555-5.888275q-4.418013-2.944138-12.282293-2.944138-16.194564-0.484067-15.703272 16.685855V255.87582199999997h-11.77655v8.341122h11.77655v22.574131zM467.995075 264.701011h10.79758v-62.325409q1.954329-37.782499-35.333265-35.824557-21.103868 0.494904-28.953698 15.21198l9.323705 2.452846q6.863634-8.337509 20.612576-8.832413 24.037169-0.484067 23.556715 22.574131v9.814997q-6.38318-12.766359-25.518269-12.759135-29.939894 0.989808-30.423961 34.841974 0.978971 34.838361 31.406544 36.315848 17.664826 0 24.535686-13.250426v11.776551z m0-37.786111v8.832413q-1.470263 20.117672-21.100256 21.591547-22.577743-0.989808-23.556714-27.479823 0.484067-26.995756 22.574131-27.479823 21.587935 0.484067 22.082839 24.535686zM506.76377 230.84162100000003v-38.291853h-10.79758v71.663563h10.79758v-13.250426q5.393371 14.724301 19.145926 15.211981a27.66767 27.66767 0 0 0 13.250426-3.43543l-4.418013-10.306288q-3.933946 3.428205-10.79758 3.43543-16.696693-0.989808-17.180759-25.026977zM600.983402 214.15576499999997l11.776551-1.961554q-6.863634-21.598772-33.371711-21.100256-35.333265 1.473875-36.315849 36.315849 1.473875 37.287595 35.333266 38.768694 33.85939-0.494904 34.350681-39.259986v-2.470908H554.870619q0.978971-24.051618 24.044393-25.518269 18.629348 0.498517 22.06839 15.22643zM554.870619 232.803175h46.600462q-0.494904 24.037169-23.065422 24.535685-22.090064-1.463038-23.53504-24.535685zM624.540116 221.517916l11.776551 3.435429q2.944138-26.00956 30.423961-25.518268 24.532073 0.484067 26.00956 19.145926 1.473875 13.250426-25.026977 19.145926a1.390789 1.390789 0 0 0-0.982583 0.491292q-1.470263 0.484067-5.396984 1.473875-34.849198 5.888275-33.371711 26.500852 1.473875 25.511044 35.333265 26.500852 33.85939 0 39.259986-26.500852l-12.282292-2.944138q-3.439042 19.622768-26.00956 20.121285-22.082839-0.989808-24.044394-17.177147-1.473875-12.282292 26.500852-17.664826c0.982583 0 2.286674-0.328732 3.926721-0.982584 1.961554-0.328732 3.251195-0.661076 3.926721-0.982583q31.894223-7.857055 30.423961-27.971115-1.965167-26.995756-37.294819-27.971114-36.79269-0.997033-43.172258 30.89719zM778.141019 192.56421799999998l23.556714-22.574131-13.250426-3.926721-22.086451 25.511044Q719.23659 193.05550900000003 717.791614 241.14790900000003q1.954329 49.562662 48.583692 51.527829 44.649745-2.944138 47.601107-51.036537-1.000646-39.751278-35.835394-49.074983z m-48.583691 49.074983q1.470263-39.267211 35.333265-41.221541 35.333265 1.473875 36.315849 41.221541-1.965167 38.76147-35.824557 41.22154-33.863002-2.944138-35.824557-41.22154zM895.917365 192.07292600000005h-65.269546v99.128937h11.285259v-90.310973h53.980675v-8.832414z"  horiz-adv-x="1024" />

    
    <glyph glyph-name="plus" unicode="&#58882;" d="M480.256 768l0-768 62.464 0 1.024 768-63.488 0zM896 415.744l-768 0 0-62.464 768-1.024 0 63.488z"  horiz-adv-x="1024" />

    
    <glyph glyph-name="api" unicode="&#58984;" d="M0 244.15232000000003c0-92.3904 69.16608-169.05216 159.9744-183.84896l32.0256-2.56h316.78976l6.4256 0.88576 316.79488-0.88576 32.02048 2.56c90.8032 14.7968 159.96928 91.45856 159.96928 183.84896 0 81.1776-53.43232 150.25152-128.04608 175.85152-2.69824 160.768-137.77408 290.25792-303.94368 290.25792-119.85408 0-223.50848-67.3536-273.03424-165.23776-23.40864 25.13408-57.2928 40.96-94.99648 40.96-70.70208 0-128-55.66976-128-124.27264 0-17.92 3.91168-34.95936 10.89024-50.36032C43.56608 380.90239999999994 0 317.46047999999996 0 244.15232000000003z m159.9744 150.8096l-15.36 40.26368a57.82528 57.82528 0 0 0-5.4016 24.52992c0 33.41824 33.792 83.08736 86.8096 83.08736 18.2016 0 39.51616-9.07776 51.712-21.97504l50.03776-34.76992 42.54208 56.73984c48.17408 71.81824 129.44384 121.20064 221.09184 121.20064 129.2544 0 256.83968-123.20256 258.88256-246.36416v-43.65824l45.00992-12.05248c50.7392-17.08032 84.76672-63.0272 84.76672-114.31424 0-59.43808-60.88704-133.9136-122.22976-143.68768h-342.71744v-0.36864h-6.4256v0.36864H194.23744l-21.22752 1.67424c-61.34784 9.7792-129.11616 82.52928-129.11616 141.97248 0 46.48448 39.60832 120.96 116.08064 147.3536zM256 241.71519999999998h38.51776l28.97408 40.25856h72.19712l-1.00864-40.25856h35.53792l2.53952 182.1696h-41.6256L256 241.71519999999998z m140.43648 70.5792H341.88288l56.91904 73.31328-2.36544-73.31328z m266.112 91.52c-3.21024 7.16288-8.36096 12.30336-15.47776 15.4112-7.11168 3.10272-17.24928 4.6592-30.41792 4.6592h-74.0608l-70.28224-182.1696h37.51936l26.78784 69.45792h23.98208c16.15872 0 27.24864 0.4096 33.29024 1.24928 10.34752 1.39776 18.74944 3.46112 25.1904 6.15936 6.43072 2.67776 12.69248 6.64064 18.80064 11.84768 6.08768 5.2224 11.6992 12.18048 16.78848 20.87936 5.09952 8.69888 8.448 17.64352 10.07104 26.83904 1.75104 9.94816 1.02912 18.5088-2.19136 25.66656z m-35.87072-28.76416c-1.16224-6.54848-4.1216-12.54912-8.89856-18.01728-4.77184-5.46816-10.7008-9.45152-17.77152-11.9296-7.06048-2.48832-20.50048-3.73248-40.28928-3.73248h-11.56096l20.33152 52.56192h26.83904c12.18048 0 19.91168-0.63488 23.2192-1.93024 3.28192-1.28 5.6576-3.31776 7.10144-6.144 1.44896-2.82112 1.792-6.4256 1.02912-10.80832z m103.92064 48.83456l-70.28224-182.1696h37.51936L768 423.8848h-37.4016z"  horiz-adv-x="1024" />

    
    <glyph glyph-name="datasource" unicode="&#58943;" d="M610.912 352.03200000000004c-18.304 0-35.168-9.984-43.904-26.048l-103.36-190.048a49.92 49.92 0 0 1 0-47.712l103.36-190.048c8.736-16.064 25.6-26.08 43.904-26.08h201.6c18.304 0 35.168 10.048 43.904 26.08l103.392 190.016a50.016 50.016 0 0 1 0 47.776l-103.392 190.048a49.952 49.952 0 0 1-43.904 26.048h-201.6z m192.032-363.776a40.32 40.32 0 0 0-34.944-20.224h-112.544c-14.4 0-27.744 7.712-34.944 20.192l-59.776 103.648a40.224 40.224 0 0 0 0 40.352l59.776 103.648c7.2 12.48 20.544 20.16 34.944 20.16H768c14.4 0 27.744-7.68 34.944-20.192l59.776-103.648c7.2-12.48 7.2-27.808 0-40.288l-59.776-103.648zM425.28 613.952a49.984 49.984 0 0 1-43.904 26.08H179.712a49.92 49.92 0 0 1-43.904-26.08l-103.36-190.048a49.92 49.92 0 0 1 0-47.712l103.36-190.048c8.736-16.064 25.6-26.08 43.904-26.08h201.664c18.304 0 35.168 10.048 43.904 26.08l103.36 190.048a49.92 49.92 0 0 1 0 47.712l-103.36 190.048zM812.512 416.032c18.304 0 35.168 10.016 43.904 26.08l103.392 190.048a50.016 50.016 0 0 1 0 47.776L856.416 869.952A49.952 49.952 0 0 1 812.512 896h-201.6c-18.304 0-35.168-9.984-43.904-26.048l-103.36-190.048a49.92 49.92 0 0 1 0-47.712l103.36-190.08c8.736-16.064 25.6-26.08 43.904-26.08h201.6z"  horiz-adv-x="1024" />

    
    <glyph glyph-name="minus" unicode="&#59386;" d="M810.666667 341.33333300000004H213.333333v85.333334h597.333334v-85.333334z"  horiz-adv-x="1024" />

    
    <glyph glyph-name="oracle" unicode="&#58886;" d="M682.53 465.94c0 60.75-49.298 109.998-110.114 109.998H450.912c-60.816 0-110.115-49.248-110.115-109.999s49.3-109.999 110.115-109.999h121.504c60.816 0 110.115 49.249 110.115 110z m-43.85-0.485a66.108 66.108 0 0 0-66.14-66.165H451.16c-36.58 0-66.425 29.622-66.425 66.165v0.607c-0.011 36.543 29.835 66.165 66.414 66.165h121.378a66.108 66.108 0 0 0 66.151-66.165v-0.607zM286.465 243.23199999999997a50.885 50.885 0 0 1-50.895 50.936h-56.054c-28.156 0-51.275-22.806-51.275-50.936s23.12-50.935 51.275-50.935h56.054a50.885 50.885 0 0 1 50.895 50.935z m-20.23-0.451a30.572 30.572 0 0 0-30.579-30.616H179.43c-16.928 0-30.959 13.706-30.959 30.616v0.18c0 16.91 14.031 30.616 30.959 30.616h56.227a30.572 30.572 0 0 0 30.58-30.616v-0.18z m111.314-16.888c18.691 0 33.845 15.284 33.845 33.957s-15.15 33.956-33.845 33.956h-0.411v-0.36h-83.086v-101.15h20.23v80.558h63.271a13.185 13.185 0 0 0 0-26.37H319.51l60.375-54.187h28.007l-40.61 33.596h10.27z m178.943-33.596l-60.375 94.769c-5.664 8.908-18.684 9.002-24.348 0.09l-60.371-94.86h24.03l48.519 76.097 25.742-40.694h-49.62l11.462-16.617h48.872l12.059-18.785h24.03z m36.789 80.557h58.442l13.694 20.952h-69.983c-28.094 0-51.04-22.978-51.04-51.043 0-28.065 22.946-50.459 51.04-50.459h56.289l13.694 20.591h-72.136c-16.542 0-30.103 13.305-30.103 29.828v0.065c0 16.516 13.561 30.066 30.103 30.066z m101.029-61.411v82.363H673.72v-101.51h95.95l12.448 19.147h-87.807z m102.546 20.59h82.15l12.76 20.953H796.68c4.194 11.92 15.252 19.868 28.228 19.868h58.196l12.604 20.952h-68.636c-28.102 0-51.138-22.967-51.138-51.04v0.05c0-28.071 23.036-50.52 51.138-50.52h56.018l12.603 20.592H824.89a30.03 30.03 0 0 0-28.033 19.146zM897.586 640.012a30.287 30.287 0 0 0 30.25-30.25v-451.52a30.287 30.287 0 0 0-30.25-30.25H126.18a30.287 30.287 0 0 0-30.25 30.25v451.52a30.287 30.287 0 0 0 30.25 30.25h771.407m0 31.988H126.18A62.239 62.239 0 0 1 63.94 609.76v-451.519a62.239 62.239 0 0 1 62.239-62.238h771.407a62.239 62.239 0 0 1 62.239 62.238v451.52A62.239 62.239 0 0 1 897.586 672z"  horiz-adv-x="1024" />

    
    <glyph glyph-name="mysql" unicode="&#58887;" d="M329.295 202.65700000000004h-27.169q-1.42 68.97-7.947 129.687h-0.235l-41.359-129.687H231.92l-41.096 129.687h-0.242q-4.587-58.345-5.78-129.687h-24.77q2.41 86.79 12.011 162.73h33.661l39.18-119.572h0.243l39.422 119.572h32.209q10.591-88.935 12.495-162.73h0.043z m117.831 120.049q-16.6-90.253-43.757-131.182-21.151-31.515-46.399-31.526c-4.486 0-10.01 1.366-16.588 4.05v14.496a79.99 79.99 0 0 1 11.307-0.722q11.78 0 18.987 6.502 8.645 7.948 8.645 17.842 0 6.766-6.734 27.718l-29.806 92.822h26.685l21.4-69.406q7.192-23.629 6.007-33.043 17.557 47.023 24.529 102.453h25.717z m118.972-74.95q0-20.693-15.136-33.99-15.147-13.233-40.611-13.244-23.842 0-46.156 15.202l6.975 13.969q19.24-9.635 34.846-9.635 14.652 0 22.968 6.503c5.523 4.335 8.821 10.382 8.821 18.062 0 9.656-6.708 17.929-19.052 24.86-11.375 6.272-34.144 19.338-34.144 19.338-12.319 9.031-18.503 18.677-18.503 34.63q0 19.766 13.814 31.944t35.705 12.188q22.603 0 41.095-12.054l-6.271-13.97q-15.84 6.734-31.24 6.734-12.507 0-19.23-6.03c-4.508-4.002-7.282-9.15-7.282-15.42 0-9.635 6.864-17.998 19.536-25.057 11.527-6.27 34.824-19.6 34.824-19.6 12.672-9 18.987-18.59 18.987-34.388z m48.577-12.54q-9.866 15.895-9.855 51.105 0 61.444 37.266 61.466 19.47 0 28.621-14.695 9.833-15.895 9.855-50.621 0-61.94-37.266-61.972-19.471 0-28.6 14.717h-0.021z m96.643-36.485l-29.831 14.738a55.249 55.249 0 0 1 7.456 7.261q19.008 22.398 19.008 66.285 0 80.749-63.217 80.76-31.02 0-48.335-20.504-19.008-22.398-18.987-66.043 0-42.898 16.83-62.918 15.346-18.084 46.377-18.084 11.582 0 21.252 2.861l38.852-22.66 10.58 18.282z m97.37 3.916h-77.17V365.39h25.96v-142.713h51.192v-20.02h0.021z m18.524 0.021h4.314v16.578h5.631v3.395h-15.771v-3.388h5.863v-16.567h-0.022z m32.736 0h4.05v19.93h-6.094l-4.971-13.597-5.419 13.597h-5.874v-19.93h3.83V217.84000000000003h0.22l5.653-15.172h2.927l5.653 15.172v-15.172h0.022z m-27.815 193.475c-14.255 0.361-25.31-1.058-34.564-4.996-2.68-1.084-6.936-1.084-7.315-4.458 1.445-1.42 1.6-3.738 2.857-5.718 2.139-3.58 5.856-8.395 9.255-10.895 3.739-2.858 7.478-5.719 11.415-8.215 6.936-4.299 14.811-6.798 21.552-11.094 3.938-2.5 7.836-5.718 11.773-8.395 1.958-1.42 3.197-3.757 5.697-4.638v0.538c-1.26 1.6-1.6 3.92-2.84 5.718-1.78 1.781-3.558 3.4-5.357 5.177a84.74 84.74 0 0 1-18.532 18.033c-5.696 3.938-18.192 9.295-20.49 15.895l-0.36 0.361c3.919 0.362 8.557 1.807 12.282 2.89 6.058 1.6 11.56 1.24 17.813 2.84 2.857 0.722 5.697 1.618 8.576 2.5v1.618c-3.22 3.219-5.538 7.496-8.916 10.534-9.074 7.857-19.07 15.533-29.405 21.97-5.538 3.58-12.644 5.878-18.532 8.938-2.12 1.083-5.697 1.6-6.936 3.399-3.218 3.938-4.996 9.096-7.315 13.753-5.159 9.815-10.155 20.71-14.612 31.085-3.197 6.957-5.159 13.933-9.096 20.37-18.373 30.388-38.292 48.768-68.951 66.809-6.596 3.757-14.45 5.357-22.809 7.336-4.458 0.181-8.915 0.539-13.366 0.701-2.857 1.261-5.719 4.657-8.197 6.257-10.154 6.437-36.344 20.37-43.84 1.958-4.82-11.614 7.138-23.051 11.234-28.946 3.02-4.097 6.958-8.757 9.075-13.395 1.239-3.038 1.6-6.257 2.857-9.476 2.84-7.857 5.517-16.617 9.277-23.95 1.958-3.757 4.097-7.698 6.578-11.076 1.445-1.98 3.92-2.857 4.458-6.076-2.478-3.58-2.68-8.937-4.096-13.395-6.416-20.19-3.92-45.199 5.176-60.032 2.84-4.457 9.617-14.294 18.713-10.533 8.016 3.218 6.238 13.394 8.558 22.328 0.538 2.167 0.18 3.58 1.239 4.996v-0.361c2.5-4.996 4.996-9.815 7.315-14.833 5.538-8.735 15.154-17.853 23.17-23.929 4.259-3.25 7.655-8.756 13.005-10.736v0.538h-0.34c-1.084 1.6-2.68 2.32-4.096 3.559-3.197 3.218-6.756 7.156-9.277 10.714-7.478 9.996-14.089 21.09-19.952 32.512-2.857 5.556-5.357 11.614-7.676 17.152-1.058 2.139-1.058 5.357-2.857 6.437-2.68-3.92-6.597-7.315-8.558-12.134-3.378-7.698-3.74-17.152-4.996-26.988-0.701-0.181-0.34 0-0.701-0.362-5.697 1.42-7.655 7.316-9.797 12.315-5.34 12.694-6.239 33.065-1.6 47.717 1.239 3.739 6.596 15.533 4.457 19.11-1.083 3.417-4.638 5.357-6.596 8.055-2.32 3.4-4.819 7.677-6.398 11.434-4.277 9.995-6.437 21.09-11.054 31.085-2.138 4.656-5.899 9.475-8.915 13.752-3.4 4.82-7.138 8.215-9.815 13.934-0.878 1.98-2.139 5.198-0.723 7.315 0.34 1.445 1.084 1.98 2.5 2.319 2.298 1.958 8.898-0.538 11.199-1.6 6.596-2.68 12.116-5.199 17.632-8.938 2.5-1.806 5.177-5.176 8.377-6.076h3.757c5.697-1.239 12.116-0.34 17.474-1.958 9.435-3.038 17.993-7.495 25.648-12.333 23.33-14.832 42.58-35.922 55.574-61.111 2.138-4.097 3.038-7.857 4.996-12.134 3.739-8.775 8.377-17.701 12.116-26.27 3.739-8.395 7.315-16.978 12.643-23.95 2.66-3.74 13.366-5.719 18.17-7.677 3.56-1.6 9.097-3.038 12.283-4.996 6.058-3.739 12.095-8.038 17.813-12.156 2.84-2.138 11.755-6.596 12.282-10.176zM650.39 551.446a27.939 27.939 0 0 1-7.297-0.9v-0.361h0.34c1.444-2.858 3.937-4.837 5.696-7.337 1.445-2.857 2.68-5.697 4.118-8.576 0.18 0.18 0.34 0.361 0.34 0.361 2.528 1.781 3.757 4.639 3.757 8.937-1.084 1.261-1.24 2.5-2.139 3.757-1.058 1.781-3.378 2.68-4.819 4.097v0.022zM897.586 640.012a30.287 30.287 0 0 0 30.25-30.25v-451.52a30.287 30.287 0 0 0-30.25-30.25H126.18a30.287 30.287 0 0 0-30.25 30.25v451.52a30.287 30.287 0 0 0 30.25 30.25h771.407m0 31.988H126.18A62.239 62.239 0 0 1 63.94 609.76v-451.519a62.239 62.239 0 0 1 62.239-62.238h771.407a62.239 62.239 0 0 1 62.239 62.238v451.52A62.239 62.239 0 0 1 897.586 672z"  horiz-adv-x="1024" />

    
    <glyph glyph-name="append" unicode="&#58958;" d="M704 832v-512h-61.44V384H64V448h578.56V576H64V640h578.56V768h-576V832zM448 192h448v-192H448zM384 138.62400000000002v-85.248H256V-32l-192 128 192 128v-85.376z"  horiz-adv-x="1024" />

    
    <glyph glyph-name="prepend" unicode="&#59038;" d="M704-64V448h-61.44v-64H64v-64h578.56v-128H64v-64h578.56v-128h-576v-64zM448 800h448v-192H448zM384 746.88v-85.76H256V576L64 704l192 128v-85.12z"  horiz-adv-x="1024" />

    
    <glyph glyph-name="layer" unicode="&#58881;" d="M512 74.49599999999998l-416 208-96-48 512-256 512 256-96 48-416-208z m0 181.173333l-416 208-96-48 512-256 512 256-96 48-416-208zM1024 597.333333L512 853.333333 0 597.333333l512-256 512 256zM512 757.941333L833.184 597.333333 512 436.725333 190.816 597.333333 512 757.941333z"  horiz-adv-x="1024" />

    
    <glyph glyph-name="pie-chart" unicode="&#59349;" d="M438.857143 387.428571l312-312q-60.571429-61.714286-141.428572-96T438.857143-54.857143q-119.428571 0-220.285714 58.857143T58.857143 163.714286 0 384t58.857143 220.285714T218.571429 764 438.857143 822.857143v-435.428572z m106.857143-3.428571h441.714285q0-89.714286-34.285714-170.571429T857.142857 72z m405.142857 73.142857H512V896q119.428571 0 220.285714-58.857143T892 677.428571 950.857143 457.142857z"  horiz-adv-x="1024" />

    
    <glyph glyph-name="graph-chart" unicode="&#58908;" d="M690.963768 161.75086199999998c-17.044168 0-34.088337-8.522084-42.610421-25.566252L426.779158 332.192546c25.566253 34.088337 34.088337 85.220842 25.566253 127.831263l187.485852 51.132505c34.088337-68.176673 127.831263-110.787094 196.007936-76.698758 76.698758 34.088337 110.787094 119.309179 85.220842 196.007936-34.088337 76.698758-119.309179 110.787094-196.007936 76.698758-25.566253-8.522084-42.610421-17.044168-59.65459-34.088337l-93.742926 59.654589c8.522084 25.566253 17.044168 59.654589 0 93.742926-25.566253 59.654589-93.742926 85.220842-153.397515 59.65459-51.132505-25.566253-76.698758-93.742926-59.654589-153.397516 25.566253-59.654589 93.742926-85.220842 153.397515-59.654589 17.044168 8.522084 25.566253 17.044168 34.088337 25.566253l102.26501-68.176674c-17.044168-17.044168-17.044168-51.132505-17.044168-76.698757l-187.485852-51.132506c-42.610421 102.26501-144.875431 144.875431-238.618358 102.265011-93.742926-42.610421-136.353347-144.875431-93.742926-238.618357 34.088337-93.742926 144.875431-136.353347 238.618358-102.265011 17.044168 8.522084 34.088337 17.044168 51.132505 34.088337l221.574188-196.007936c-25.566253-34.088337-34.088337-85.220842-17.044168-136.353347 34.088337-76.698758 119.309179-110.787094 204.53002-76.698758 76.698758 34.088337 110.787094 119.309179 76.698758 204.530021-34.088337 68.176673-119.309179 102.26501-196.007936 68.176673z"  horiz-adv-x="1024" />

    
    <glyph glyph-name="shape" unicode="&#58923;" d="M521.839 582.741c-86.739-73.167-141.459-181.92-141.459-303.455 0-0.15 0-0.301 0-0.451 0-27.135 2.753-53.711 7.941-79.388h-291.017c-29.117 0-41.876 21.283-28.535 47.648l287.471 566.788c13.341 26.313 34.676 26.895 47.913 0.794l117.689-232.041zM777.439-65.25900000000001c-190.051 0-344.117 154.067-344.117 344.117s154.067 344.117 344.117 344.117c190.051 0 344.117-154.067 344.117-344.117 0-190.051-154.067-344.117-344.117-344.117z"  horiz-adv-x="1204" />

    
    <glyph glyph-name="mount" unicode="&#59268;" d="M29.696 91.13599999999997H747.52L388.096 738.304l-358.4-647.168z m754.688 407.552l-45.056 74.752-8.192-5.12-12.288 7.168-31.744-47.104v-1.024l-38.912-64.512 40.96-71.68 37.888 62.464 156.672-290.816h-63.488l30.72-54.272-30.72-17.408h143.36l31.744 17.408-210.944 390.144z"  horiz-adv-x="1024" />

    
    <glyph glyph-name="scatter-chart" unicode="&#58935;" d="M1170.432 18.432000000000016v-73.216H0V822.784h73.216v-804.352h1097.216zM370.688 170.49599999999998c0-52.224 41.984-94.208 94.208-94.208s94.208 41.984 94.208 94.208-41.984 94.208-94.208 94.208-94.208-42.496-94.208-94.208zM182.272 368.12800000000004c0-52.224 41.984-94.208 94.208-94.208s94.208 41.984 94.208 94.208S328.704 462.336 276.48 462.336s-94.208-41.984-94.208-94.208zM608.256 354.81600000000003c0-52.224 41.984-94.208 94.208-94.208s94.208 41.984 94.208 94.208-41.984 94.208-94.208 94.208-94.208-41.984-94.208-94.208zM877.568 449.024c0-51.712 41.984-94.208 94.208-94.208s94.208 41.984 94.208 94.208c0 51.712-41.984 94.208-94.208 94.208s-94.208-41.984-94.208-94.208zM356.352 604.672c0-52.224 41.984-94.208 94.208-94.208s94.208 41.984 94.208 94.208S502.784 698.88 450.56 698.88s-94.208-41.984-94.208-94.208zM640 656.896c0-52.224 41.984-94.208 94.208-94.208s94.208 41.984 94.208 94.208-41.984 94.208-94.208 94.208S640 708.608 640 656.896z"  horiz-adv-x="1170" />

    
    <glyph glyph-name="edit" unicode="&#58903;" d="M858.02539063 48.52148437000005H426.921875l8.0859375 1.84570313c5.53710938 1.23046875 10.63476563 4.13085938 14.58984375 8.17382813l432.94921875 449.56054687c11.07421875 11.51367188 10.81054688 29.79492188-0.61523438 41.04492188L657.28320313 769.40039063c-5.53710938 5.44921875-12.74414063 8.0859375-20.74218751 8.34960937-7.734375-0.08789063-15.1171875-3.25195313-20.56640625-8.7890625L197.96679687 340.7578125c-4.04296875-4.13085938-6.76757813-9.31640625-7.82226562-14.94140625L133.80664062 24.703125c-1.84570313-9.66796875 1.31835938-19.51171875 8.34960938-26.27929688 5.44921875-5.36132813 12.74414063-8.17382813 20.21484375-8.17382812h695.56640625c16.08398438 0 29.09179688 13.0078125 29.09179688 29.09179688 0.08789063 16.08398438-12.91992188 29.1796875-29.00390626 29.17968749zM245.8671875 306.39257812000005L637.33203125 707.4375l183.25195313-179.6484375-381.09375001-395.77148438-111.53320312 110.56640626c-11.42578125 11.33789063-29.8828125 11.25-41.22070313-0.17578125-11.33789063-11.42578125-11.25-29.8828125 0.17578125-41.22070313l102.30468751-101.42578125-190.01953126-42.45117188 46.66992188 249.08203126z"  horiz-adv-x="1024" />

    
    <glyph glyph-name="help" unicode="&#58896;" d="M512 896C226.742857 896 0 669.257143 0 384s226.742857-512 512-512 512 226.742857 512 512-226.742857 512-512 512z m0-870.4c-43.885714 0-73.142857 36.571429-73.142857 73.142857s36.571429 73.142857 73.142857 73.142857c43.885714 0 73.142857-36.571429 73.142857-73.142857s-36.571429-73.142857-73.142857-73.142857z m197.485714 416.914286c-14.628571-21.942857-43.885714-51.2-95.085714-95.085715-21.942857-21.942857-36.571429-36.571429-43.885714-51.2-7.314286-7.314286-7.314286-29.257143-7.314286-65.828571H453.485714v29.257143c0 36.571429 7.314286 65.828571 14.628572 87.771428 14.628571 21.942857 36.571429 51.2 65.828571 73.142858 36.571429 29.257143 58.514286 43.885714 58.514286 58.514285 7.314286 14.628571 14.628571 29.257143 14.628571 43.885715 0 21.942857-7.314286 43.885714-29.257143 58.514285-7.314286 14.628571-29.257143 21.942857-58.514285 21.942857-36.571429 0-58.514286-7.314286-80.457143-21.942857-21.942857-21.942857-36.571429-58.514286-36.571429-80.457143-7.314286-21.942857-117.028571-29.257143-109.714285 14.628572 0 43.885714 21.942857 95.085714 65.828571 131.657143 36.571429 29.257143 87.771429 51.2 153.6 51.2s124.342857-14.628571 160.914286-51.2c43.885714-36.571429 58.514286-80.457143 58.514285-131.657143 0-21.942857-7.314286-51.2-21.942857-73.142857z"  horiz-adv-x="1024" />

    
    <glyph glyph-name="database" unicode="&#60063;" d="M108.8 672v-576C108.8-6.399999999999977 313.6-64 512-64s403.2 57.6 403.2 160v576C915.2 883.2 108.8 883.2 108.8 672z m742.4-390.4c0-32-121.6-96-339.2-96s-339.2 64-339.2 96V377.6C249.6 332.79999999999995 384 307.20000000000005 512 307.20000000000005s262.4 25.6 339.2 70.4v-96z m0 300.8v-108.8c0-32-121.6-96-339.2-96s-339.2 64-339.2 96V582.4h6.4c6.4-6.4 12.8-12.8 19.2-12.8h6.4c12.8-6.4 19.2-6.4 32-12.8 19.2-12.8 32-12.8 44.8-19.2 70.4-19.2 147.2-25.6 230.4-25.6s160 6.4 230.4 25.6c12.8 6.4 25.6 6.4 38.4 12.8 12.8 6.4 25.6 6.4 32 12.8h6.4c12.8 6.4 19.2 12.8 32 19.2-6.4 0 0 0 0 0zM512 768c217.6 0 339.2-64 339.2-96S729.6 576 512 576 172.8 640 172.8 672 294.4 768 512 768z m0-768c-217.6 0-339.2 64-339.2 96V192c76.8-44.8 211.2-70.4 339.2-70.4s262.4 25.6 339.2 70.4v-89.6c0-38.4-121.6-102.4-339.2-102.4z"  horiz-adv-x="1024" />

    
    <glyph glyph-name="chart" unicode="&#58900;" d="M1024 64.00204799999995V0H0v768h64.002048v-703.997952H1024z m0 0M832.002048 576L960 128H127.997952V416.002048L351.997952 703.9979519999999l288.006144-287.995904 191.997952 159.997952z m0 0"  horiz-adv-x="1024" />

    
    <glyph glyph-name="transplant" unicode="&#59043;" d="M988.16 53.52727300000004H464.151273a185.390545 185.390545 0 0 0-2.792728 82.850909h451.211637a28.625455 28.625455 0 0 1 28.811636 28.858182V784.290909a28.625455 28.625455 0 0 1-28.811636 28.858182h-619.054546a28.625455 28.625455 0 0 1-28.811636-28.858182V337.45454500000005l-82.618182-1.396363V860.16a36.026182 36.026182 0 0 0 35.84 35.84H988.16a36.026182 36.026182 0 0 0 35.84-35.84v-770.792727a36.026182 36.026182 0 0 0-35.84-35.84zM413.230545 249.01818200000002v-341.178182a36.026182 36.026182 0 0 0-35.886545-35.84H36.445091a36.026182 36.026182 0 0 0-35.886546 35.84V249.01818200000002a35.700364 35.700364 0 0 0 35.886546 35.84h340.898909a35.700364 35.700364 0 0 0 35.886545-35.84z m270.708364 382.603636h-138.658909a33.047273 33.047273 0 0 0 0 66.094546h214.621091a35.281455 35.281455 0 0 0 7.074909-1.396364 13.963636 13.963636 0 0 0 4.328727 0.465455 18.618182 18.618182 0 0 0 5.073455 0.930909 32.814545 32.814545 0 0 0 33.047273-33.047273v-214.574546a33.047273 33.047273 0 1 0-66.048 0V572.509091l-241.152-241.570909a37.236364 37.236364 0 0 0-51.758546-4.189091l-11.869091 12.101818a36.864 36.864 0 0 0 4.235637 51.665455z"  horiz-adv-x="1024" />

    
    <glyph glyph-name="excel" unicode="&#58987;" d="M784.815 602.219h-112.45v-56.225h112.45V602.22z m80.4-393.977c-0.078 139.355-0.243 278.718 0.158 418.152-0.556 13.656 0.409 28.756-7.869 40.647-11.803 8.11-26.748 7.145-40.322 7.711-80.401-0.401-160.801-0.244-241.2-0.244v64.259h-47.716c-123.212-21.768-246.505-42.89-369.801-64.337v-562.173c122.568-21.444 245.224-42.012 367.637-64.258h49.88v72.29c83.292 0.158 166.579-0.243 249.796 0 13.412 0.566 33.493 0.965 36.709 17.674 4.892 23.05 2.33 46.904 2.728 70.279z m-470.204 59.433c-13.657 33.495-30.278 65.866-40.083 100.89-10.917-32.616-26.504-63.38-39.03-95.344-17.596 0.244-35.188 0.965-52.774 1.686 20.646 40.404 40.561 81.122 61.848 121.283-18.072 41.37-37.917 81.93-56.548 123.056 17.673 1.044 35.338 2.087 53.01 3.05 11.972-31.406 25.063-62.405 34.944-94.62 10.599 34.135 26.426 66.265 39.997 99.28 18.152 1.286 36.388 2.41 54.617 3.296-21.445-43.936-42.969-87.876-64.814-131.645 22.089-44.985 44.656-89.64 66.823-134.625-19.358 1.128-38.631 2.33-57.99 3.693z m446.03-123.29H575.98v48.193h64.256v56.225h-64.256V280.92999999999995h64.256v56.224h-64.256v32.129h64.256v56.224h-64.256v32.128h64.256v56.225h-64.256v32.13h64.256v56.224h-64.256v48.193h265.06v-506.023z m-56.226 369.479h-112.45v-56.225h112.45v56.225z m0-88.354h-112.45v-56.224h112.45V425.51z m0-88.354h-112.45v-56.224h112.45v56.224z m0-88.353h-112.45v-56.225h112.45v56.225z"  horiz-adv-x="1024" />

    
    <glyph glyph-name="table" unicode="&#58928;" d="M953.346 760.442H135.558c-25.962 0-45.433-19.47-45.433-45.432v-707.452c0-25.962 19.471-45.433 45.433-45.433h817.788c25.962 0 45.433 19.471 45.433 45.433V715.01c0 25.961-19.471 45.432-45.433 45.432zM375.702 20.53800000000001H148.538v155.77h227.164v-155.77z m0 207.693H148.538V384h227.164v-155.77z m0 207.692H148.538v155.77h227.164v-155.77z m279.086-415.385H427.625v155.77h227.163v-155.77z m0 207.693H427.625V384h227.163v-155.77z m0 207.692H427.625v155.77h227.163v-155.77z m285.577-415.385H713.202v155.77h227.163v-155.77z m0 207.693H713.202V384h227.163v-155.77z m0 207.692H713.202v155.77h227.163v-155.77z"  horiz-adv-x="1102" />

    
    <glyph glyph-name="upload" unicode="&#59037;" d="M566.112 0h212.992q104.992 6.016 173.504 76.992t71.488 176q-3.008 108-74.016 179.488t-178.016 74.496h-8v8q-2.016 107.008-73.504 178.496t-178.496 74.496q-107.008-3.008-178.016-74.496t-74.016-178.496v-8h-8q-107.008-3.008-178.016-74.496t-74.016-179.488q3.008-104.992 71.488-176T244.992 0h228.992v172h-90.016q-20 0-25.504 11.008t4.512 27.008l140 214.016q7.008 10.016 16.512 10.016t16.512-10.016l140.992-214.016q10.016-16 4-27.008t-24.992-11.008h-90.016V0z"  horiz-adv-x="1024" />

    
    <glyph glyph-name="more" unicode="&#58885;" d="M197.030957 478.65787c-52.236712 0-94.614891-42.397622-94.614891-94.637404 0-52.256154 42.37818-94.634334 94.614891-94.634334 52.239781 0 94.637404 42.37818 94.637404 94.634334C291.668361 436.260248 249.270738 478.65787 197.030957 478.65787zM511.999488 478.65787c-52.258201 0-94.614891-42.397622-94.614891-94.637404 0-52.256154 42.35669-94.634334 94.614891-94.634334 52.237735 0 94.594425 42.37818 94.594425 94.634334C606.593913 436.260248 564.237223 478.65787 511.999488 478.65787zM826.926064 478.65787c-52.197826 0-94.594425-42.397622-94.594425-94.637404 0-52.256154 42.397622-94.634334 94.594425-94.634334 52.259224 0 94.656847 42.37818 94.656847 94.634334C921.582911 436.260248 879.185288 478.65787 826.926064 478.65787z"  horiz-adv-x="1024" />

    
    <glyph glyph-name="sankey-chart" unicode="&#59264;" d="M144 364.8s73.6-6.4 144 6.4c16 3.2 140.8 54.4 185.6 70.4C483.2 448 640 483.2 736 384c12.8-16 105.6-118.4 172.8-96v-185.6s-108.8 6.4-182.4 108.8c-16 22.4-96 128-240 86.4-12.8-3.2-211.2-96-342.4-86.4v153.6zM144 627.2s70.4-6.4 144 6.4c16 3.2 140.8 54.4 185.6 70.4 9.6 6.4 166.4 41.6 262.4-57.6 12.8-16 105.6-118.4 172.8-96v-185.6s-108.8 6.4-182.4 108.8c-16 22.4-96 128-240 86.4-12.8-3.2-211.2-96-339.2-86.4-3.2 28.8-3.2 153.6-3.2 153.6zM140.8 96h768v-76.8h-768zM67.2 627.2h35.2v-153.6H67.2v153.6zM67.2 364.8h35.2v-150.4H67.2v150.4zM67.2 96h35.2v-76.8H67.2V96zM953.6 291.2h35.2v-272h-35.2v272zM953.6 553.6h35.2V368h-35.2v185.6z"  horiz-adv-x="1024" />

    
    <glyph glyph-name="tree-chart" unicode="&#58895;" d="M943.542857 91.42857100000003V442.514286H541.257143V632.685714c-7.314286-7.314286-21.942857-7.314286-29.257143-7.314285s-21.942857 0-29.257143 7.314285v-190.171428H73.142857V91.42857100000003c7.314286 0 21.942857 7.314286 29.257143 7.314286 14.628571 0 21.942857 0 29.257143-7.314286V376.68571399999996h343.771428V91.42857100000003c7.314286 0 21.942857 7.314286 29.257143 7.314286 7.314286 0 21.942857 0 29.257143-7.314286V376.68571399999996H877.714286V91.42857100000003c14.628571 7.314286 21.942857 7.314286 36.571428 7.314286 7.314286 0 21.942857-7.314286 29.257143-7.314286zM541.257143 632.685714c51.2 14.628571 95.085714 58.514286 95.085714 117.028572C636.342857 815.542857 577.828571 874.057143 512 874.057143S387.657143 815.542857 387.657143 749.714286c0-58.514286 36.571429-102.4 95.085714-117.028572 7.314286 0 21.942857-7.314286 29.257143-7.314285 7.314286 0 21.942857 0 29.257143 7.314285zM73.142857 91.42857100000003c-43.885714-14.628571-73.142857-51.2-73.142857-102.4 0-58.514286 43.885714-102.4 102.4-102.4 58.514286 0 102.4 43.885714 102.4 102.4 0 43.885714-29.257143 87.771429-73.142857 102.4-7.314286 0-21.942857 7.314286-29.257143 7.314286-7.314286 0-14.628571-7.314286-29.257143-7.314286z m409.6 0c-43.885714-14.628571-73.142857-51.2-73.142857-102.4 0-58.514286 43.885714-102.4 102.4-102.4s102.4 43.885714 102.4 102.4c0 51.2-29.257143 87.771429-73.142857 102.4-7.314286 0-21.942857 7.314286-29.257143 7.314286-14.628571 0-21.942857-7.314286-29.257143-7.314286z m460.8 0h-29.257143c-14.628571 0-21.942857 0-36.571428-7.314285-43.885714-14.628571-73.142857-51.2-73.142857-102.4 0-58.514286 43.885714-102.4 102.4-102.4 58.514286 0 102.4 43.885714 102.4 102.4 14.628571 58.514286-21.942857 95.085714-65.828572 109.714285z"  horiz-adv-x="1024" />

    
    <glyph glyph-name="gauge-chart" unicode="&#58927;" d="M416.16 189.34400000000005c-35.328-61.248-11.584-111.616 37.44-139.872s104.544-23.744 139.872 37.472c35.328 61.184 258.4 607.552 239.008 618.752-19.36 11.2-380.992-455.104-416.32-516.352zM512 578.4639999999999c22.432 0 44.288-1.952 65.6-5.536a6240 6240 0 0 0 72 88.416 492.992 492.992 0 0 1-137.568 19.52c-287.072 0-512-242.08-512-551.104 0-19.04 0.864-38.048 2.496-56.576 2.496-28.16 27.648-48.896 55.552-46.432a51.2 51.2 0 0 1 46.432 55.552 539.616 539.616 0 0 0-2.112 47.456C102.4 381.34400000000005 282.368 578.4639999999999 512 578.4639999999999z m369.6-63.968c-14.272-38.4-29.376-77.504-42.688-111.36 52.064-75.264 82.688-169.632 82.688-273.408 0-16.224-0.704-32.576-2.144-48.384a51.2 51.2 0 0 1 51.04-55.84 51.2 51.2 0 0 1 50.88 46.528A637.44 637.44 0 0 1 1024 129.72799999999995c0 151.104-53.856 286.144-142.4 384.768z"  horiz-adv-x="1024" />

    
    <glyph glyph-name="secutiry" unicode="&#59134;" d="M845.3 750.7v-400.1c0-29.9-5.8-59.4-17.4-88.9-11.6-29.3-26.1-55.4-43.2-78.1-17.2-22.8-37.7-44.9-61.4-66.3-23.8-21.6-45.8-39.4-65.8-53.6-20.1-14.2-41.2-27.7-62.9-40.3-21.9-12.7-37.4-21.2-46.6-25.7-9.2-4.5-16.5-8-22.1-10.4-4.2-2.1-8.6-3.2-13.6-3.2-4.8 0-9.4 1.1-13.6 3.2-5.6 2.4-12.9 5.9-22.1 10.4-9.2 4.5-24.7 13.1-46.6 25.7-21.9 12.7-42.9 26.2-62.9 40.3-20.1 14.2-42 32.1-65.8 53.6-23.8 21.6-44.2 43.7-61.4 66.3-17.2 22.8-31.5 48.7-43.2 78.1-11.6 29.3-17.4 58.9-17.4 88.9V750.7c0 9 3.3 16.9 9.9 23.4 6.6 6.6 14.3 9.9 23.4 9.9h600c9 0 16.9-3.3 23.4-9.9 6-6.6 9.3-14.5 9.3-23.4z m-100-400V684H512v-592.2c41.3 21.9 78.3 45.7 111 71.3 81.6 64 122.3 126.4 122.3 187.6z"  horiz-adv-x="1024" />

    
    <glyph glyph-name="haze" unicode="&#59091;" d="M516.096 513.5360000000001c66.048 114.688 212.992 154.112 328.192 88.064 115.2-66.048 154.624-212.992 88.064-327.68-66.048-114.688-212.992-154.112-328.192-88.064-36.864 20.992-67.072 51.712-88.064 88.064-66.048-114.688-212.992-154.112-328.192-88.064-115.2 66.048-154.624 212.992-88.064 327.68 66.048 114.688 212.992 154.112 328.192 88.064 36.352-20.992 67.072-51.712 88.064-88.064z m-208.384-302.08c100.864 0 182.784 81.408 182.784 182.272 0 100.864-81.92 182.272-182.784 182.272-100.864 0-182.784-81.408-182.784-182.272 0.512-100.864 81.92-182.272 182.784-182.272z m418.816-1.024c101.376 0 183.296 81.92 183.296 182.784s-81.92 182.784-183.296 182.784c-101.376 0-183.296-81.92-183.296-182.784s81.92-182.784 183.296-182.784zM163.84 665.6c-17.92 0-32.256 14.336-32.256 31.744s14.336 31.744 32.256 31.744 32.256-14.336 32.256-31.744-14.848-31.744-32.256-31.744z m352.256 0c-17.92 0-32.256 14.336-32.256 31.744s14.336 31.744 32.256 31.744 32.256-14.336 32.256-31.744-14.848-31.744-32.256-31.744z m352.256 0c-17.92 0-32.256 14.336-32.256 31.744s14.336 31.744 32.256 31.744 32.256-14.336 32.256-31.744-14.336-31.744-32.256-31.744zM163.84 38.39999999999998c-17.92 0-32.256 14.336-32.256 31.744s14.336 31.744 32.256 31.744 32.256-14.336 32.256-31.744-14.848-31.744-32.256-31.744z m352.256 0c-17.92 0-32.256 14.336-32.256 31.744s14.336 31.744 32.256 31.744 32.256-14.336 32.256-31.744-14.848-31.744-32.256-31.744z m352.256 0c-17.92 0-32.256 14.336-32.256 31.744s14.336 31.744 32.256 31.744 32.256-14.336 32.256-31.744-14.336-31.744-32.256-31.744z"  horiz-adv-x="1032" />

    
    <glyph glyph-name="cube" unicode="&#59538;" d="M932.715674 677.681705L531.901504 890.994196a42.662498 42.662498 0 0 1-40.102749 0l-400.600858-213.312491A42.662498 42.662498 0 0 1 68.586773 639.925394v-511.949978a42.662498 42.662498 0 0 1 22.611124-37.756311l400.600858-213.312491a44.795623 44.795623 0 0 1 20.051374-4.906187 42.662498 42.662498 0 0 1 20.051375 4.906187l400.81417 213.312491A42.662498 42.662498 0 0 1 955.326798 127.975416V639.925394a42.662498 42.662498 0 0 1-22.611124 37.756311z m-420.865545 127.987494l327.008049-174.062992-327.008049-209.686179-327.008048 208.832929zM153.91177 574.6517719999999l325.941486-208.192991v-386.522234L153.91177 153.57291499999997z m389.935233-594.715225V366.45878100000004l326.154799 208.192991V153.57291499999997z"  horiz-adv-x="1024" />

    
    <glyph glyph-name="sqlserver" unicode="&#58884;" d="M112.3 400.1C101 405 94 408.9 91.1 411.9c-2.9 2.9-4.3 6-4.3 9.5 0 4.3 2 7.7 6.2 10.2 4.2 2.6 9.7 3.8 16.8 3.8 12 0 22.4-3.1 31.4-9.1v26.6c-8.8 3.4-19.8 5.1-32.8 5.1-15.6 0-28-3.4-37.5-10.2s-14-16.4-14-28.8c0-16.9 10.4-29.7 31.2-38.5 13.2-5.5 21.4-9.8 24.5-13.1 3.1-3.2 4.6-6.7 4.6-10.2 0-4.2-1.9-7.6-5.8-10.2-3.9-2.7-9.7-4-17.4-4-13.6 0-25.8 4.4-36.5 13.3v-28.5c9.7-4.9 22.2-7.4 37.5-7.4 16.7 0 29.6 3.4 38.6 10 9 6.8 13.6 16.5 13.6 29.3 0 8.7-2.5 16.2-7.5 22.5-5.1 6.4-14.2 12.3-27.4 17.9zM272.8 339.70000000000005c12.1 13 18.1 29.8 18.1 50.6 0 19.9-5.8 36.1-17.4 48.8-11.6 12.7-26.9 19-46 19-20 0-36.1-6.6-48.3-19.7-12.2-13.1-18.2-30.1-18.2-51 0-19.8 5.9-35.8 17.9-48.3 11.9-12.5 27.4-18.8 46.5-18.8 6.9 0 13.3 0.8 19.2 2.5l17.7-18h42.1l-33.9 32.7c0.7 0.7 1.6 1.4 2.3 2.2z m-20.9 17.1c-6.1-7.9-14.8-11.8-26-11.8-10.8 0-19.4 4.1-25.7 12.4-6.2 8.2-9.4 18.8-9.4 31.7 0 13.1 3.2 23.8 9.6 32 6.3 8.3 15.1 12.4 26.3 12.4 11 0 19.4-4 25.5-12.1s9-19 9-32.9c0-13.2-3.2-23.7-9.3-31.7zM341.8 455.9h-28.4v-133h78.2v23h-49.8zM510.9 400.1c-11.3 4.9-18.3 8.8-21.2 11.8-2.9 2.9-4.3 6-4.3 9.5 0 4.3 2 7.7 6.2 10.2 4.2 2.6 9.7 3.8 16.8 3.8 12 0 22.4-3.1 31.4-9.1v26.6C531 456.3 520 458 507 458c-15.6 0-28-3.4-37.5-10.2-9.4-6.9-14.1-16.5-14.1-28.9 0-16.9 10.4-29.7 31.2-38.5 13.2-5.5 21.4-9.8 24.5-13.1 3.1-3.2 4.6-6.7 4.6-10.2 0-4.2-1.9-7.6-5.8-10.2-3.9-2.7-9.7-4-17.4-4-13.6 0-25.8 4.4-36.5 13.3v-28.5c9.7-4.9 22.2-7.4 37.5-7.4 16.7 0 29.6 3.4 38.6 10 9 6.8 13.6 16.5 13.6 29.3 0 8.7-2.5 16.2-7.5 22.5-4.9 6.5-13.9 12.4-27.3 18zM606.8 420.1c-13.5 0-24.8-4.7-33.7-14.2-8.9-9.5-13.4-21.8-13.4-37.1s4.2-27.1 12.6-35.7c8.4-8.5 20.2-12.8 35.3-12.8 14 0 25.4 2.5 34.1 7.3V348c-8-5.1-17.3-7.8-27.7-7.8-16.8 0-25.7 7.4-26.6 22.1h62.5V374c0 14.2-3.8 25.5-11.4 33.7-7.8 8.3-18.3 12.4-31.7 12.4z m-19.7-40.2c0.9 6.4 3.2 11.6 6.9 15.5 3.7 3.9 7.9 5.8 12.6 5.8 11.6 0 17.3-7.1 17.3-21.3h-36.8zM695.9 400h-0.3v17.9h-27.7v-95.1h27.7v45.8c0 8.4 1.8 15 5.5 19.9 3.7 4.8 8.7 7.3 15 7.3 4.8 0 8.9-1 12.3-3v25.7c-1.7 0.7-4.2 1.1-7.5 1.1-12.1 0-20.4-6.7-25-19.6zM791.9 357.6c-1.7-6-2.9-11.4-3.4-15.9h-0.4c-0.2 4.4-1.3 9.9-3.2 16.4L767.5 418h-29.8l34-95.1h31.4l35.7 95.1h-29.1l-17.8-60.4zM891.1 420.1c-13.5 0-24.8-4.7-33.7-14.2-8.9-9.5-13.4-21.8-13.4-37.1s4.2-27.1 12.6-35.7c8.4-8.5 20.2-12.8 35.3-12.8 14 0 25.4 2.5 34.1 7.3V348c-8-5.1-17.3-7.8-27.7-7.8-16.8 0-25.7 7.4-26.6 22.1h62.5V374c0 14.2-3.8 25.5-11.4 33.7-7.6 8.3-18.2 12.4-31.7 12.4z m-19.7-40.2c0.9 6.4 3.2 11.6 6.9 15.5 3.7 3.9 7.9 5.8 12.6 5.8 11.6 0 17.3-7.1 17.3-21.3h-36.8zM1005.2 419.6c-12.1 0-20.5-6.6-25-19.5h-0.3V418h-27.7v-95.1h27.7v45.8c0 8.4 1.8 15 5.5 19.9 3.7 4.8 8.7 7.3 15 7.3 4.8 0 8.9-1 12.3-3v25.7c-1.6 0.5-4.2 1-7.5 1zM352 459.5z"  horiz-adv-x="1024" />

    
    <glyph glyph-name="save" unicode="&#59478;" d="M85.312 810.688v-853.376h853.376v512L597.312 810.688h-512zM0 896h640l384-384v-640H0V896z m170.688-512v-341.312h170.624V384H170.688z m256 0v-341.312h170.624V384H426.688z m256 0v-341.312h170.624V384h-170.624z m-512 341.312v-256h680.192l-253.568 256H170.688z"  horiz-adv-x="1024" />

    
    <glyph glyph-name="confirm" unicode="&#59071;" d="M512-128C230.4-128 0 102.39999999999998 0 384S230.4 896 512 896s512-230.4 512-512-230.4-512-512-512z m0 938.666667C277.333333 810.666667 85.333333 618.666667 85.333333 384s192-426.666667 426.666667-426.666667 426.666667 192 426.666667 426.666667S746.666667 810.666667 512 810.666667zM708.266667 520.5333330000001c-17.066667 17.066667-44.8 17.066667-59.733334 0l-181.333333-181.333333-91.733333 91.733333c-14.933333 14.933333-40.533333 14.933333-55.466667 0l-6.4-4.266666c-14.933333-14.933333-14.933333-40.533333 0-55.466667l125.866667-125.866667c14.933333-14.933333 40.533333-14.933333 55.466666 0l4.266667 4.266667 209.066667 209.066667c17.066667 17.066667 17.066667 44.8 0 61.866666z"  horiz-adv-x="1024" />

    
    <glyph glyph-name="disconnect" unicode="&#58917;" d="M281.6-128c-76.8 0-143.36 30.72-199.68 81.92-51.2 51.2-81.92 122.88-81.92 199.68s30.72 143.36 81.92 199.68L204.8 471.04l46.08-46.08-122.88-122.88c-40.96-40.96-61.44-92.16-61.44-148.48 0-56.32 20.48-112.64 61.44-158.72 40.96-40.96 97.28-61.44 153.6-61.44s112.64 25.6 153.6 61.44l122.88 122.88 46.08-46.08-122.88-122.88C424.96-97.27999999999997 358.4-128 281.6-128zM112.64 737.28l46.08 46.08 752.64-752.64-46.08-46.08zM773.12 343.03999999999996l122.88 122.88c40.96 40.96 61.44 92.16 61.44 148.48 0 56.32-20.48 112.64-61.44 158.72-40.96 40.96-97.28 61.44-153.6 61.44s-112.64-25.6-153.6-61.44L471.04 645.12 424.96 691.2l122.88 122.88c51.2 51.2 122.88 81.92 199.68 81.92s143.36-30.72 199.68-81.92c107.52-107.52 107.52-286.72 0-399.36L819.2 296.96000000000004l-46.08 46.08z"  horiz-adv-x="1027" />

    
    <glyph glyph-name="up" unicode="&#60310;" d="M877.216 404.192M856.224 495.232L535.648 822.112c-5.12 5.248-11.744 8.064-18.656 8.8-1.248 0.16-2.46399999 0.16-3.68 0.192-1.248-0.032-2.464 0-3.712-0.192-6.912-0.736-13.536-3.58399999-18.656-8.80000001L170.36799999 495.232c-12.096-12.35200001-12.096-32.28800001 1e-8-44.64 12.096-12.35200001 31.648-12.352 43.744 0l267.744 273.024 0-756.96c0-17.43999999 13.856-31.552 30.944-31.552 0.15999999 0 0.32 0.096 0.48 0.096 0.15999999 0 0.32-0.096 0.48-0.096 17.088 0 30.944 14.112 30.944 31.552L544.704 723.616l267.744-273.024c12.096-12.35200001 31.648-12.352 43.744 0C868.32 462.944 868.32 482.88 856.224 495.232z"  horiz-adv-x="1024" />

    
    <glyph glyph-name="top" unicode="&#60311;" d="M849.513502 371.30179301l-308.405045 310.43016798c-6.833639 6.867408-15.761985 10.1645-24.656563 10.09593901-1.201361 0.10335399-2.231831 0.686638-3.432169 0.686638-5.015224 0-9.68457-1.167592-13.978363-3.090385-4.32551499-1.647523-8.445346-4.155646-11.948123-7.658424l-278.290167-277.807167c-13.426801-13.392008-13.46057-35.130102-0.034792-48.556902 6.695492-6.729262 15.487739-10.096962 24.312732-10.096962 8.7902 0 17.546631 3.367701 24.27794 10.028401l221.320665 220.97581 0-604.927459c0-18.99154 15.384385-34.340109 34.340109-34.340109 18.95265399 0 34.340109 15.34857 34.340109 34.340109L547.359834 577.992249l253.46066601-255.111259c6.696516-6.730285 15.557324-10.129708 24.34752399-10.129708s17.512862 3.331885 24.208355 9.994632C862.872764 336.10210700000005 862.90551 357.87601600000005 849.513502 371.30179301zM890.757858 761.194758L135.282614 761.194758c-18.954701 0-34.340109 15.384385-34.340109 34.340109s15.384385 34.340109 34.340109 34.340109l755.475244 0c18.98847 0 34.339086-15.384385 34.339086-34.340109S909.745305 761.194758 890.757858 761.194758z"  horiz-adv-x="1024" />

    
    <glyph glyph-name="radar-chart" unicode="&#59082;" d="M245.028571-26.111999999999966l113.590858 150.674286-77.824 253.805714-188.708572 64.731429zM113.371429 506.294857l182.930285-63.634286 218.697143 163.547429V788.992z m468.918857 284.525714v-183.588571l215.771428-164.864 181.686857 62.537143z m423.716571-347.501714l-189.293714-65.462857-78.921143-248.393143 112.713143-146.797714z m-206.555428-504.100571l-106.203429 138.24-284.818286 1.609143-103.643428-137.435429zM408.649143 191.04914299999996L494.445714 305.005714l-135.021714 46.372572zM372.516571 416.182857l142.409143-49.444571V522.678857zM582.217143 522.971429v-154.916572l139.776 48.128z m155.062857-172.544l-133.705143-46.153143 84.114286-109.714286z m-95.597714-205.824L548.864 265.36228600000004 458.605714 145.627429zM884.150857-128l-677.741714 3.437714L0 508.489143 550.619429 896 1097.142857 503.003429z"  horiz-adv-x="1097" />

    
    <glyph glyph-name="horizon-dist" unicode="&#58902;" d="M371.976 765.7760000000001h-64v-108.912h-96v-545.736h96v-108.928h64V111.12800000000004h96V656.864h-96zM812.024 713.992H716.816v51.784h-64v-51.784H557.592v-660.016h95.224v-51.784h64v51.792h95.208V713.992z m-64-596l-126.44-0.008V650l126.44-0.008v-532z"  horiz-adv-x="1024" />

    
    <glyph glyph-name="line-chart" unicode="&#58953;" d="M1170.285714 18.285714v-73.142857H0V822.857143h73.142857v-804.571429h1097.142857zM1097.142857 731.428571v-248.571428q0-12-11.142857-16.857143T1065.714286 470.285714l-69.142857 69.142857-361.714286-361.714285q-5.714286-5.714286-13.142857-5.714286t-13.142857 5.714286l-133.142858 133.142857-237.714285-237.714286-109.714286 109.714286 334.285714 334.285714q5.714286 5.714286 13.142857 5.714286t13.142858-5.714286l133.142857-133.142857 265.142857 265.142857-69.142857 69.142857q-9.142857 9.142857-4.285715 20.285715T830.285714 749.714286h248.571429q8 0 13.142857-5.142857t5.142857-13.142858z"  horiz-adv-x="1170" />

    
    <glyph glyph-name="full-screen" unicode="&#59322;" d="M128.025 768.377h256.093v-64.161H128.025zM128.025 704.216h64.012V512.21h-64.012zM640.124 768.01h256.05v-63.794h-256.05zM832.162 704.216h64.012V512.21h-64.012zM128.025 256.03499999999997h64.012V0.36000000000001364h-64.012zM192.037 64.279h192.08v-63.919h-192.08zM832.162 256.03499999999997h64.012V0.36000000000001364h-64.012zM640.124 64.279h194.209v-63.919H640.124zM255.953 640.047v-511.849h511.849V640.047H255.953z m447.38-447.38H319.041v383.11h384.293v-383.11z"  horiz-adv-x="1024" />

    
    <glyph glyph-name="redo" unicode="&#58905;" d="M64 32h5.8c3.6 0 7 2.2 8.2 5.6 4.4 11.4 16.6 39.6 42.8 79.4 43 65.4 116.8 134.8 189 167 55.2 24.8 106 43 194.2 46.4 4.6 0.2 8.4-3.4 8.4-8v-163.2c0-6.4 7.2-10.2 12.4-6.8l431.8 284.4c4.8 3.2 4.8 10.2 0 13.4l-432 284.4c-5.4 3.6-12.4-0.2-12.4-6.8v-165.2c0-4.4-3.4-7.8-7.6-8-143.2-7.6-246.2-49.6-326.8-131-122-123.2-113.6-278.2-113.6-317.4 0-20.6-0.2-50.6-0.2-74.2z"  horiz-adv-x="1024" />

    
    <glyph glyph-name="undo" unicode="&#58909;" d="M959.8 106.20000000000005c0 39.2 8.4 194.2-113.6 317.4-80.8 81.4-183.8 123.4-326.8 131-4.2 0.2-7.6 3.8-7.6 8V728c0 6.4-7 10.2-12.4 6.8L67.6 450.4c-4.8-3.2-4.8-10.2 0-13.4l431.8-284.4c5.4-3.6 12.4 0.2 12.4 6.8v163.2c0 4.6 3.8 8.2 8.4 8 88.2-3.4 139-21.8 194.2-46.4 72.2-32.4 145.8-101.8 189-167 26.2-39.8 38.4-67.8 42.8-79.4 1.4-3.4 4.6-5.6 8.2-5.6h5.8c-0.2 23.4-0.4 53.4-0.4 74z"  horiz-adv-x="1024" />

    
    <glyph glyph-name="align-left" unicode="&#58988;" d="M245.76 30.720000000000027v291.84h650.24v-291.84H245.76z m5.12 701.44H665.6v-291.84H250.88V732.16zM128 793.6h61.44v-819.2H128V793.6z"  horiz-adv-x="1024" />

    
    <glyph glyph-name="grid-bottom" unicode="&#58883;" d="M153.6 691.2h716.8v-51.2H153.6zM153.6 486.4h716.8v-102.4H153.6zM153.6 230.39999999999998h716.8v-153.6H153.6z"  horiz-adv-x="1024" />

    
    <glyph glyph-name="cancel-full-screen" unicode="&#58945;" d="M568.88 474.827l166.58 166.58 33.94-33.94-166.58-166.581zM539.267 411.334l0.058 48 192.05-0.235-0.059-48zM539.097 603.329l48 0.059 0.235-192.05-48-0.059zM254.597 160.52700000000004l166.58 166.58 33.941-33.941-166.58-166.58zM292.605 308.909l0.059 48 192.05-0.235-0.059-48zM436.659 356.654l48 0.059 0.234-192.05-48-0.059zM855.95 244.23000000000002h48v-252.05h-48zM651.81 40.09000000000003h252.05v-48H651.81zM119.61 776.33h48v-252.05h-48zM119.7 776.42h252.05v-48H119.7zM651.81 776.42h252.05v-48H651.81zM855.95 776.33h48v-252.05h-48zM119.7 40.09000000000003h252.05v-48H119.7zM119.61 244.23000000000002h48v-252.05h-48z"  horiz-adv-x="1024" />

    
    <glyph glyph-name="align-vertical" unicode="&#58889;" d="M597.33333301 85.33333300000004l0 597.333334 255.99999999 0L853.333333 85.33333300000004zM127.99999999 85.33333300000004l0 597.333334 256.00000001 0L384 85.33333300000004zM469.333333 0l0 768 42.666667 1e-8L512-1.0000007932831068e-8z"  horiz-adv-x="1024" />

    
    <glyph glyph-name="cross" unicode="&#58888;" d="M960 725.44L869.44 816 512 458.56 154.56 816 64 725.44 421.44 368 64 10.56l90.56-90.56L512 277.44 869.44-80 960 10.56 602.56 368 960 725.44z"  horiz-adv-x="1024" />

    
    <glyph glyph-name="slide" unicode="&#58925;" d="M554.666667 128v-85.333333h170.666666v-85.333334H298.666667v85.333334h170.666666v85.333333H128a42.666667 42.666667 0 0 0-42.666667 42.666667V725.333333a42.666667 42.666667 0 0 0 42.666667 42.666667h768a42.666667 42.666667 0 0 0 42.666667-42.666667v-554.666666a42.666667 42.666667 0 0 0-42.666667-42.666667h-341.333333zM170.666667 682.666667v-469.333334h682.666666V682.666667H170.666667z m256-106.666667l213.333333-128-213.333333-128v256z"  horiz-adv-x="1024" />

    
    <glyph glyph-name="grid-top" unicode="&#60312;" d="M870.4 76.79999999999995l-716.8 0 0 51.2L870.4 128zM870.4 281.6l-716.8 0 0 102.4L870.4 384zM870.4 537.6l-716.8 0 0 153.6L870.4 691.2z"  horiz-adv-x="1024" />

    
    <glyph glyph-name="grid-left" unicode="&#60313;" d="M819.2 742.4l0-716.8-51.2 0L768 742.4zM614.4 742.4l0-716.8-102.4 0L512 742.4zM358.4 742.4l0-716.8-153.6 0L204.8 742.4z"  horiz-adv-x="1024" />

    
    <glyph glyph-name="grid-right" unicode="&#60314;" d="M204.8 25.600000000000023l0 716.8 51.2 0L256 25.600000000000023zM409.6 25.600000000000023l0 716.8 102.4 0L512 25.600000000000023zM665.6 25.600000000000023l0 716.8 153.6 0L819.2 25.600000000000023z"  horiz-adv-x="1024" />

    
    <glyph glyph-name="comment" unicode="&#59850;" d="M512 832C229.2 832 0 645.8 0 416c0-99.2 42.8-190 114-261.4C89 53.799999999999955 5.4-36 4.4-37c-4.4-4.6-5.6-11.4-3-17.4S9.6-64 16-64c132.6 0 232 63.6 281.2 102.8 65.4-24.6 138-38.8 214.8-38.8 282.8 0 512 186.2 512 416S794.8 832 512 832z"  horiz-adv-x="1024" />

    
    <glyph glyph-name="next" unicode="&#60315;" d="M155.527704 34.045653000000016l499.349889 352.416422-499.349889 352.461447L155.527704 34.045653000000016zM742.919788 34.045653000000016l117.523647 0 0 704.877869-117.523647 0L742.919788 34.045653000000016z"  horiz-adv-x="1024" />

    
    <glyph glyph-name="thundershower" unicode="&#58891;" d="M771.224897 730.878883C744.078108 827.525264 654.927482 896 553.168734 896 446.941133 896 356.61073 822.114974 333.372697 720.284724a220.463385 220.463385 0 0 1-68.593905 10.927834C141.962812 731.212558 38.1901 621.910386 38.1901 492.587757s103.772711-238.577133 226.588692-238.577134H759.164954c122.815981 0 226.588692 109.254503 226.588691 238.624801-0.011917 125.068282-97.075391 231.367385-214.528748 238.243459zM759.164954 295.207484H264.778792c-98.755679 0-185.391831 92.24903-185.391831 197.42794s86.636152 197.416023 185.391831 197.416024a183.234865 183.234865 0 0 0 76.173079-16.814802 20.64014 20.64014 0 0 1 29.005831 16.481127c10.379654 94.143824 89.150626 165.085366 183.211032 165.085366 87.958932 0 164.382267-62.5401 181.685663-148.687657a20.544804 20.544804 0 0 1 20.187295-16.516878 9.712306 9.712306 0 0 1 4.111345 0.405176c98.755679 0 185.391831-92.237113 185.391831-197.416023S857.908716 295.207484 759.164954 295.207484zM475.672875 154.93318599999998l-120.956939-112.388658a20.628223 20.628223 0 0 1 14.002405-35.750819h53.435557l-96.646381-99.816287A20.604389 20.604389 0 0 1 355.180697-121.70665199999996l130.418988 134.792505A20.604389 20.604389 0 0 1 470.775012 48.014403000000016h-49.61022l82.560559 76.721258a20.604389 20.604389 0 0 1-28.052476 30.197525zM693.073606 169.06667700000003l-102.867024-102.867024a20.604389 20.604389 0 1 1 29.125001-29.136917L722.22244 139.89400899999998A20.592472 20.592472 0 0 1 693.073606 169.06667700000003zM281.093083 169.06667700000003l-102.867024-102.867024A20.604389 20.604389 0 1 1 207.410644 37.01506800000004l102.867024 102.878941A20.592472 20.592472 0 0 1 281.093083 169.06667700000003z"  horiz-adv-x="1024" />

    
    <glyph glyph-name="sunny" unicode="&#58892;" d="M521.522976 107.25065900000004a265.70589 265.70589 0 1 0 187.898718 77.830036 263.979636 263.979636 0 0 0-187.898718-77.830036z m0 485.706069c-121.30648 0-219.988746-98.682267-219.988747-219.988747s98.682267-219.988746 219.988747-219.988746 219.988746 98.693699 219.988746 219.988746-98.682267 219.988746-219.988746 219.988747zM512 711.119368a22.864288 22.864288 0 0 0-22.864288 22.864288V873.135712a22.864288 22.864288 0 0 0 45.728576 0v-139.152056a22.864288 22.864288 0 0 0-22.864288-22.864288zM512-128a22.864288 22.864288 0 0 0-22.864288 22.864288V34.016344000000004a22.864288 22.864288 0 0 0 45.728576 0v-139.152056a22.864288 22.864288 0 0 0-22.864288-22.864288zM1001.135712 361.135712H861.983656a22.864288 22.864288 0 0 0 0 45.728576h139.152056a22.864288 22.864288 0 0 0 0-45.728576zM162.016344 361.135712H22.864288a22.864288 22.864288 0 0 0 0 45.728576h139.152056a22.864288 22.864288 0 1 0 0-45.728576zM166.131916 15.267627999999945a22.864288 22.864288 0 0 0-16.165051 39.02934l98.385031 98.396463a22.864288 22.864288 0 0 0 32.341535-32.341535l-98.396463-98.385031a22.772831 22.772831 0 0 0-16.165052-6.699237zM759.471621 608.6073329999999a22.864288 22.864288 0 0 0-16.165052 39.040771l98.396463 98.396463a22.864288 22.864288 0 0 0 32.341535-32.341535l-98.396463-98.396463a22.864288 22.864288 0 0 0-16.176483-6.699236zM264.528379 608.6073329999999a22.864288 22.864288 0 0 0-16.176483 6.699236l-98.385031 98.396463a22.864288 22.864288 0 1 0 32.330103 32.341535l98.396463-98.396463a22.864288 22.864288 0 0 0-16.165052-39.040771zM857.868084 15.267627999999945a22.772831 22.772831 0 0 0-16.165052 6.699237l-98.396463 98.385031a22.864288 22.864288 0 0 0 32.341535 32.341535l98.385031-98.396463a22.864288 22.864288 0 0 0-16.165051-39.02934z"  horiz-adv-x="1024" />

    
    <glyph glyph-name="rainy" unicode="&#58893;" d="M800.927653 715.546767C771.218216 821.143508 673.867961 896 562.638576 896c-116.076649 0-214.752232-80.746839-240.12981-191.976224a242.17916 242.17916 0 0 1-74.942393 11.927953C105.866715 715.951729 0 570.38653 0 440.258949S105.866715 164.61525600000004 247.566373 164.61525600000004h540.132542c141.650572 0 247.554102 145.565199 247.554102 275.692779 0 126.028881-99.338247 266.513656-234.325364 275.238732z m-13.228738-505.96853H247.566373c-114.064114 0-202.554305 124.004075-202.554305 230.705255s88.490191 230.705255 202.554305 230.705255a200.554042 200.554042 0 0 0 83.262508-18.407334 22.481491 22.481491 0 0 1 31.648344 18.051459c11.338918 102.798826 97.362526 180.391875 200.161351 180.391875 96.098556 0 179.557409-68.328024 198.504692-162.438588 2.159794-10.713068 12.197927-17.965558 22.726922-18.051459a16.24754 16.24754 0 0 1 3.828725 0.441776c114.051843 0 202.542034-123.942717 202.542034-230.705255s-88.490191-230.692983-202.542034-230.692984zM585.14461 97.04806799999994a22.506034 22.506034 0 0 1-22.506034-22.506034v-180.036a22.506034 22.506034 0 0 1 45.012068 0V74.54203399999994a22.506034 22.506034 0 0 1-22.506034 22.506034zM313.832776 97.04806799999994a22.506034 22.506034 0 0 1-22.506034-22.506034v-180.036a22.506034 22.506034 0 1 1 45.012068 0V74.54203399999994a22.506034 22.506034 0 0 1-22.506034 22.506034zM450.108407 97.04806799999994a22.506034 22.506034 0 0 1-22.506034-22.506034v-90.024136a22.506034 22.506034 0 1 1 45.012068 0V74.54203399999994a22.506034 22.506034 0 0 1-22.506034 22.506034zM720.180814 97.04806799999994a22.506034 22.506034 0 0 1-22.506034-22.506034v-90.024136a22.506034 22.506034 0 1 1 45.012068 0V74.54203399999994a22.506034 22.506034 0 0 1-22.506034 22.506034z"  horiz-adv-x="1035" />

    
    <glyph glyph-name="cloudy" unicode="&#58897;" d="M788.299075 752.025208a29.873388 29.873388 0 0 1 29.873388 29.873388V866.126612a29.873388 29.873388 0 0 1-59.746775 0v-84.228016a29.873388 29.873388 0 0 1 29.873387-29.873388zM1221.418387 462.835878h-84.228016a29.873388 29.873388 0 1 1 0-59.746776h84.228016a29.873388 29.873388 0 0 1 0 59.746776zM520.484154 658.596188a29.873388 29.873388 0 1 1 42.24097 42.24097l-59.552598 59.552598a29.873388 29.873388 0 0 1-42.255907-42.24097zM1056.128933 207.418413a29.873388 29.873388 0 0 1-41.225275 0.941011 248.681016 248.681016 0 0 1-31.008576 59.672092 251.638482 251.638482 0 0 1 64.541454 168.142363c0 138.642393-112.786975 251.429368-251.414432 251.429368a251.205318 251.205318 0 0 1-230.025085-149.919596h-1.89696a251.489115 251.489115 0 0 1-239.285836-173.952737 250.219496 250.219496 0 0 1-74.399672 11.172647C112.787095 374.90356099999997 0.00012 262.116585 0.00012 123.48913000000005a251.160507 251.160507 0 0 1 213.131684-248.501776 29.873388 29.873388 0 0 1 12.890367-2.987339h597.467755a29.873388 29.873388 0 0 1 21.359472 8.962016 251.518988 251.518988 0 0 1 184.69222 242.527099 255.312908 255.312908 0 0 1-1.493669 27.543263l45.407549-45.392613a29.873388 29.873388 0 0 1 42.24097 42.240971zM797.022104 627.871408a191.652719 191.652719 0 0 0 146.603651-315.16424 249.188864 249.188864 0 0 1-142.869477 61.150824l-0.552658 1.40405c-0.537721 1.493669-1.105315 2.897719-1.672909 4.331641-0.418227 1.030632-0.821518 2.046327-1.239746 2.987339s-0.955948 2.255441-1.493669 3.390629c-0.761771 1.777467-1.493669 3.539996-2.359998 5.28759l-0.463038 1.030632a252.071646 252.071646 0 0 1-163.571734 136.999356 191.518289 191.518289 0 0 0 167.619578 98.582179z m129.217339-626.04165a192.175503 192.175503 0 0 0-108.813815-65.975377 30.381235 30.381235 0 0 1-9.947838-4.032907H235.253048a30.067565 30.067565 0 0 1-5.840247 1.254682 191.682592 191.682592 0 1 0 104.36268 363.529256 29.873388 29.873388 0 0 1 42.315653 21.986813 191.682592 191.682592 0 0 0 208.50131 158.328955c1.80734-0.194177 3.61468-0.403291 5.407083-0.642278l2.539238-0.343544c1.493669-0.22405 2.987339-0.463038 4.555692-0.716961l3.166579-0.567594 3.062022-0.612405c1.493669-0.298734 2.987339-0.627341 4.481009-0.955948l2.270377-0.537721c1.643036-0.403291 3.286073-0.821518 4.914172-1.269619l2.554175-0.702025c1.404049-0.403291 2.823035-0.836455 4.227084-1.269619l3.271136-1.045568 2.793162-0.941012c1.493669-0.552658 3.091896-1.105315 4.615438-1.687847l1.49367-0.567594q2.882782-1.120252 5.73569-2.330124l0.687088-0.298734a192.997022 192.997022 0 0 0 105.064705-111.248496l0.08962-0.253924c0.791645-2.195694 1.493669-4.406325 2.240504-6.646829 0-0.149367 0.104557-0.313671 0.149367-0.463037 0.702025-2.225567 1.359239-4.481008 1.98658-6.721512a30.022755 30.022755 0 0 1 28.738199-21.971877c1.687846 0 3.375693 0 5.06354-0.08962h0.582531l4.481008-0.194177h0.149367a191.667656 191.667656 0 0 0 67.961957-16.669351l2.658731-1.239745a191.622846 191.622846 0 0 0 66.602718-295.074388zM1035.008448 649.843285a29.783768 29.783768 0 0 1 21.120485 8.752903l59.552599 59.552598a29.873388 29.873388 0 0 1-42.240971 42.24097l-59.567535-59.552598a29.873388 29.873388 0 0 1 21.135422-50.993873z"  horiz-adv-x="1251" />

    
    <glyph glyph-name="overcast" unicode="&#58898;" d="M961.722672 566.6828780000001a199.665458 199.665458 0 0 1-64.226943 84.232293 197.78277 197.78277 0 0 1-239.719271-0.574867 199.622343 199.622343 0 0 1-60.878348-77.606958 253.91847 253.91847 0 0 1-37.524401 2.730615 250.842935 250.842935 0 0 1-243.499017-190.7694 259.782107 259.782107 0 0 1-56.437505 6.165441C116.410437 390.860002 0 274.47830799999997 0 131.37969999999996s116.410437-259.3797 259.437187-259.3797c6.725936 0 13.638704 0.273062 20.565844 0.819185h440.405116c7.085228-0.546123 14.184827-0.819185 21.140711-0.819185 150.629357 0 273.176493 122.532764 273.176493 273.162121 0 6.610963-0.25869 13.16444-0.718583 19.674801a214.942531 214.942531 0 0 1-52.284096 401.845956zM741.577601-70.51336400000002c-5.748664 0-11.741645 0.244318-17.677141 0.718583-0.77607 0-1.552139 0.100602-2.328208 0.100601H278.810183c-0.790441 0-1.595254 0-2.385695-0.100601-5.748664-0.488636-11.497327-0.718583-17.016044-0.718583C148.028087-70.51336400000002 57.486636 20.07120199999997 57.486636 131.37969999999996s90.541451 201.950551 201.950551 201.950552a201.490658 201.490658 0 0 0 69.314511-12.201539 28.743318 28.743318 0 0 1 38.458559 23.986299 193.485644 193.485644 0 0 0 240.610314 166.711244l0.330548-0.100602a193.399414 193.399414 0 0 0 93.415783-56.30816l1.164105-1.279077c0.934158-1.034759 1.853944-2.069519 2.759358-3.133022s1.537768-1.796457 2.299466-2.701872l1.868315-2.270722a191.990992 191.990992 0 0 0 12.934493-17.907087v-0.071858a192.40777 192.40777 0 0 0 14.184828-26.716914l0.34492-0.804813c0.819185-1.897059 1.595254-3.80849 2.34258-5.748664l0.60361-1.552139c0.675468-1.753342 1.307821-3.521056 1.925802-5.28877 0.186832-0.546123 0.388035-1.092246 0.560495-1.638369q1.164104-3.406083 2.17012-6.826538a28.743318 28.743318 0 0 1 24.000671-20.393384h0.143716c1.523396-0.201203 3.046792-0.402406 4.555816-0.632353l2.026404-0.316177 2.558155-0.416778c0.905415-0.143717 1.796457-0.316176 2.6875-0.474265l1.767715-0.330548c1.077874-0.201203 2.155749-0.416778 3.219251-0.646725l1.049131-0.215575 3.80849-0.847927h0.17246a216.350954 216.350954 0 0 0 126.298138-84.792788l0.08623-0.114973q1.034759-1.437166 2.026404-2.874332c0.287433-0.402406 0.560495-0.819185 0.833557-1.221591 0.474265-0.68984 0.948529-1.437166 1.437165-2.098262s1.006016-1.509024 1.437166-2.270722l0.790442-1.235963c0.761698-1.207219 1.523396-2.414439 2.270722-3.650402a214.827558 214.827558 0 0 0 31.315844-111.825878c0.028743-118.882363-96.735636-215.632371-215.63237-215.63237z m304.176161 336.771083a157.685842 157.685842 0 0 0-42.870658-41.577209c-0.08623 0.287433-0.186832 0.560495-0.273062 0.847928q-2.400067 7.760696-5.245655 15.348932v0.08623a272.659113 272.659113 0 0 1-17.863973 38.257356l-0.431149 0.776069q-1.925802 3.362968-3.909092 6.66845c-0.359291 0.574866-0.718583 1.135361-1.063502 1.710228-0.891043 1.437166-1.796457 2.874332-2.716244 4.311497-0.617981 0.962901-1.235963 1.925802-1.868315 2.874332s-1.135361 1.681484-1.695856 2.51504q-2.414439 3.578543-4.943851 7.085228c-0.114973 0.143717-0.215575 0.301805-0.330548 0.459893a272.256707 272.256707 0 0 1-168.536444 107.672469q-1.509024 3.98095-3.176137 7.933156l-0.215575 0.517379a250.598617 250.598617 0 0 1-24.848598 45.227611l-0.876671 1.279078c-1.207219 1.710227-2.443182 3.420455-3.679145 5.101939-0.474265 0.632353-0.919786 1.264706-1.437166 1.882687-1.336564 1.767714-2.673129 3.506685-4.052808 5.245655-1.207219 1.509024-2.443182 3.003677-3.679144 4.49833-0.273062 0.330548-0.546123 0.675468-0.833557 1.006016a250.239325 250.239325 0 0 1-98.029085 71.38403 141.014717 141.014717 0 0 0 124.832229 76.169792 138.973942 138.973942 0 0 0 84.72093-28.470256 141.417124 141.417124 0 0 0 49.869656-72.002011 28.743318 28.743318 0 0 1 23.986299-20.393384 157.441524 157.441524 0 0 0 109.152749-246.416465zM109.641386 513.522111a28.743318 28.743318 0 1 1 52.24098-24.00067 371.794817 371.794817 0 0 0 299.764062 214.683841 28.743318 28.743318 0 1 1-5.748663 57.199203A429.324567 429.324567 0 0 1 109.641386 513.522111zM41.950872 629.443912A28.743318 28.743318 0 0 1 82.076544 635.824929 513.542489 513.542489 0 0 0 395.867345 839.040186a28.743318 28.743318 0 1 1-11.497327 56.322532A570.885408 570.885408 0 0 1 35.483626 669.569584a28.743318 28.743318 0 0 1 6.467246-40.125672z"  horiz-adv-x="1131" />

    
    </font>
</defs>
</svg>
